<?xml version="1.0" encoding="UTF-8"?>
<svg width="654" height="461" version="1.1" viewBox="0 0 654 461" xmlns="http://www.w3.org/2000/svg" xmlns:xlink="http://www.w3.org/1999/xlink">
<title>Group 113</title>
<desc>Created with Sketch.</desc>
<defs>
<polygon id="m" points="0.67791 0.63298 23.934 0.63298 23.934 13.178 0.67791 13.178"/>
<linearGradient id="e" x1="30.057%" x2="31.898%" y1="41.998%" y2="95.682%">
<stop stop-color="#C2D4EF" offset="0"/>
<stop stop-color="#E7E5ED" stop-opacity="0" offset="1"/>
</linearGradient>
<linearGradient id="h" x1="30.933%" x2="33.532%" y1="108.76%" y2="-163.59%">
<stop stop-color="#C2D4EF" offset="0"/>
<stop stop-color="#E7E5ED" stop-opacity="0" offset="1"/>
</linearGradient>
<linearGradient id="c" x1="50%" x2="50%" y1="-107.4%" y2="100%">
<stop stop-color="#FFD1EE" offset="0"/>
<stop stop-color="#FF6BAF" offset="1"/>
</linearGradient>
<linearGradient id="a" x1="-9.5106%" x2="53.129%" y1="63.961%" y2="203.65%">
<stop stop-color="#638692" offset="0"/>
<stop stop-color="#ABB0D3" offset="1"/>
</linearGradient>
<linearGradient id="p" x1="-10.203%" x2="130.09%" y1="61.073%" y2="330.49%">
<stop stop-color="#638692" offset="0"/>
<stop stop-color="#ABB0D3" offset="1"/>
</linearGradient>
<linearGradient id="b" x1="50%" x2="50%" y1="158.43%" y2="-47.644%">
<stop stop-color="#638692" offset="0"/>
<stop stop-color="#ABB0D3" offset="1"/>
</linearGradient>
<linearGradient id="o" x1="-24.93%" x2="242.67%" y1="100%" y2="-137.38%">
<stop stop-color="#638692" offset="0"/>
<stop stop-color="#ABB0D3" offset="1"/>
</linearGradient>
<linearGradient id="g" x1="-19.371%" x2="0%" y1="-92.325%" y2="214.99%">
<stop stop-color="#5DEBC9" offset="0"/>
<stop stop-color="#43B99A" offset="1"/>
</linearGradient>
<linearGradient id="f" x1="50%" x2="50%" y1="3.0979%" y2="100%">
<stop stop-color="#6E6E6E" offset="0"/>
<stop stop-color="#4C4C4C" offset="1"/>
</linearGradient>
<linearGradient id="v" x1="89.034%" x2="120.62%" y1="73.89%" y2="150.5%">
<stop stop-color="#638692" offset="0"/>
<stop stop-color="#ABB0D3" offset="1"/>
</linearGradient>
<linearGradient id="l" x1="50%" x2="40.25%" y1="-8.3587%" y2="169.58%">
<stop stop-color="#F5BA86" offset="0"/>
<stop stop-color="#F8587A" offset="1"/>
</linearGradient>
<linearGradient id="k" x1="50%" x2="-19.597%" y2="270.22%">
<stop stop-color="#F5BA86" offset="0"/>
<stop stop-color="#F8587A" offset="1"/>
</linearGradient>
<linearGradient id="d" x1="50%" x2="50%" y1="-15.553%" y2="100%">
<stop stop-color="#BB6849" offset="0"/>
<stop stop-color="#862E46" offset="1"/>
</linearGradient>
<linearGradient id="u" x1="50%" x2="50%" y2="100%">
<stop stop-color="#F5BA86" offset="0"/>
<stop stop-color="#F8587A" offset="1"/>
</linearGradient>
<linearGradient id="j" x1="50%" x2="36.499%" y2="173.81%">
<stop stop-color="#C1E3FF" offset="0"/>
<stop stop-color="#6F88FC" offset="1"/>
</linearGradient>
<linearGradient id="t" x1="96.396%" x2="50%" y1="-118.5%" y2="100%">
<stop stop-color="#34426B" offset="0"/>
<stop stop-color="#34406B" offset="1"/>
</linearGradient>
<linearGradient id="s" x1="96.396%" x2="50%" y1="-118.5%" y2="100%">
<stop stop-color="#6474A4" offset="0"/>
<stop stop-color="#34406B" offset="1"/>
</linearGradient>
<linearGradient id="r" x1="50%" x2="50%" y2="100%">
<stop stop-color="#C1E3FF" offset="0"/>
<stop stop-color="#6F88FC" offset="1"/>
</linearGradient>
<linearGradient id="i" x1="50%" x2="50%" y2="246.01%">
<stop stop-color="#C1E3FF" offset="0"/>
<stop stop-color="#6F88FC" offset="1"/>
</linearGradient>
<linearGradient id="q" x1="50%" x2="50%" y2="100%">
<stop stop-color="#B4EC51" offset="0"/>
<stop stop-color="#429321" offset="1"/>
</linearGradient>
</defs>
<g fill="none" fill-rule="evenodd">
<g transform="translate(-1058 -3620)">
<g transform="translate(1050 3620)">
<path d="m308.39 16.904c-1.0087 0-1.9282 0.3718-2.6366 0.98194 0.069196-0.31613 0.10914-0.6444 0.10914-0.98194 0-2.5098-2.0338-4.5443-4.5427-4.5443-0.8168 0-1.5808 0.21837-2.2435 0.59587 0.08489-0.55877 0.12983-1.1304 0.12983-1.7127 0-6.2092-5.0321-11.243-11.24-11.243-5.8189 0-10.605 4.4237-11.181 10.093-0.63775-0.49026-1.4339-0.7857-2.3013-0.7857-2.0894 0-3.783 1.6949-3.783 3.7843 0 0.29473 0.037095 0.57946 0.10058 0.85421-0.56998-0.52808-1.3311-0.85421-2.1693-0.85421-1.7649 0-3.1959 1.4315-3.1959 3.197 0 0.62656 0.18262 1.2096 0.49365 1.702-0.44656-0.13059-0.91952-0.20124-1.4082-0.20124-2.5745 0-4.6069 2.31-2.6516 2.31h49.331c1.4645 0-0.074903-3.1949-2.8114-3.1949" fill="#E3F0FF" opacity=".70312"/>
<path d="m470.32 51.158c-1.008 0-1.9282 0.3718-2.6359 0.98266 0.069196-0.31685 0.10914-0.6444 0.10914-0.98266 0-2.5105-2.0345-4.5443-4.5427-4.5443-0.81751 0-1.5815 0.21837-2.2442 0.59587 0.085603-0.55805 0.12983-1.1304 0.12983-1.7127 0-6.2099-5.0321-11.243-11.239-11.243-5.8189 0-10.606 4.4237-11.181 10.093-0.63774-0.49026-1.4346-0.7857-2.3013-0.7857-2.0894 0-3.7837 1.6949-3.7837 3.7843 0 0.29401 0.037095 0.57946 0.10058 0.85421-0.56998-0.52879-1.3311-0.85421-2.1693-0.85421-1.7649 0-3.1959 1.4315-3.1959 3.1977 0 0.62585 0.18333 1.2082 0.49365 1.7013-0.44585-0.12988-0.91881-0.20196-1.4075-0.20196-2.5752 0-4.6069 2.3107-2.6523 2.3107h49.331c1.4645 0-0.074903-3.1949-2.8114-3.1949" fill="#E3F0FF" opacity=".47314"/>
<g transform="translate(172.63 87.776)">
<mask id="n" fill="white">
<use xlink:href="#m"/>
</mask>
<path d="m21.874 13.178h-20.155c-0.63632-0.52523-1.0415-1.3209-1.0415-2.2108 0-1.5821 1.2819-2.8652 2.8634-2.8652 0.18191 0 0.35882 0.019268 0.53074 0.051381-0.052075-0.33041-0.086317-0.66581-0.086317-1.0112 0-3.5945 2.9134-6.5089 6.5066-6.5089 3.2301 0 5.9024 2.3564 6.4124 5.4421 0.73904-0.58303 1.6707-0.93342 2.6851-0.93342 2.399 0 4.3437 1.9453 4.3437 4.3452 0 1.56-0.82536 2.9244-2.0595 3.6909" fill="#E3F0FF" mask="url(#n)"/>
</g>
<g transform="translate(350.97 111.8)" opacity=".78246">
<path d="m0.30081 25.801v-1.567-11.49-12.505h49.635v49.24h-49.635v-7.15-1.9599-11.775-2.7936z" stroke="#E3F0FF" stroke-linecap="round" stroke-linejoin="round" stroke-width=".71348"/>
<path d="m39.866 29.52v-15.309h7.7534v15.309h-7.7534zm-34.873-18.373v-5.1992h42.626v5.1992h-42.626zm0.35041 5.5505v-2.4863h32.967v2.4863h-32.967zm0 6.4114v-2.4869h32.967v2.4869h-32.967zm0 6.4114v-2.4863h32.967v2.4863h-32.967zm0 6.4114v-2.4863h42.451v2.4863h-42.451zm0 6.4108v-2.4863h42.451v2.4863h-42.451z" fill="#E3F0FF"/>
</g>
<path d="m443.08 90.547h10.668c2.409 0 4.3622 1.9532 4.3622 4.3631v1.3523l1.7356 1.1611c0.44514 0.29758 0.44514 0.77999 0 1.0776l-1.7356 1.1611v1.3516c0 2.4099-1.9532 4.3638-4.3622 4.3638h-10.668c-2.409 0-4.3622-1.9539-4.3622-4.3638v-6.1036c0-2.4099 1.9532-4.3631 4.3622-4.3631" fill="url(#e)" opacity=".3"/>
<g transform="translate(441.57 93.401)" fill="#fff">
<path d="m12.639 4.0375c-0.10986-0.16128-0.18333-0.3561-0.22114-0.58517-0.037095-0.22907-0.058496-0.52309-0.064203-0.88132-0.0057069-0.36609-0.017834-0.61372-0.037808-0.74074-0.018547-0.12774-0.060636-0.21409-0.12412-0.25904-0.064202-0.044245-0.17691-0.077071-0.33742-0.099194-0.10843-0.014272-0.19617-0.064226-0.26466-0.15057-0.067769-0.085635-0.10201-0.20338-0.10201-0.35396 0-0.33041 0.20402-0.49525 0.61206-0.49525 0.39092 0 0.70409 0.11489 0.93878 0.34325 0.2347 0.22907 0.35597 0.53522 0.36453 0.91843 0.0107 0.61942 0.019261 1.0105 0.024968 1.1725 0.0057069 0.16271 0.025681 0.31257 0.059922 0.44958 0.034955 0.13773 0.094877 0.25048 0.17905 0.33826 0.08489 0.087062 0.22756 0.19339 0.4273 0.31828 0.16122 0.10276 0.24112 0.2569 0.24112 0.46243 0 0.1413-0.027821 0.24477-0.08275 0.30971-0.055642 0.065653-0.14981 0.13916-0.28106 0.22122-0.13197 0.082067-0.23898 0.16984-0.32101 0.26475-0.081323 0.094198-0.14339 0.23407-0.18476 0.42032-0.017121 0.07493-0.029248 0.24049-0.037808 0.49597-0.0085603 0.25548-0.016407 0.59373-0.024968 1.0162-0.0028534 0.24977-0.058496 0.47099-0.16693 0.66438-0.10772 0.19268-0.26109 0.34183-0.46012 0.44744-0.1976 0.10562-0.42374 0.15842-0.67627 0.15842-0.40804 0-0.61206-0.16841-0.61206-0.50382 0-0.14487 0.034955-0.26119 0.10415-0.35039 0.069196-0.088489 0.15694-0.13987 0.26252-0.15414 0.12769-0.019268 0.21758-0.039249 0.27036-0.059944 0.052789-0.021409 0.098444-0.065653 0.13554-0.13345s0.062062-0.1677 0.074903-0.29758c0.012127-0.13059 0.018547-0.33398 0.018547-0.60801 0-0.3668 0.022114-0.66724 0.066343-0.90202 0.044942-0.23478 0.1227-0.42746 0.23398-0.57946 0.11057-0.15057 0.26466-0.28759 0.46155-0.40962-0.2083-0.13059-0.36667-0.27617-0.47653-0.43745"/>
<path d="m9.5247 6.6178c-0.12341-0.11275-0.18547-0.26761-0.18547-0.46457 0-0.17198 0.062062-0.31828 0.18547-0.43959 0.12341-0.1206 0.2725-0.18126 0.44728-0.18126 0.17549 0 0.32244 0.061372 0.44157 0.1834 0.11984 0.12274 0.17905 0.26832 0.17905 0.43745 0 0.19981-0.062062 0.35538-0.18761 0.46671-0.12484 0.11061-0.27322 0.16627-0.44514 0.16627-0.16693 0-0.31174-0.056376-0.43515-0.16841"/>
<path d="m6.8558 6.6178c-0.12341-0.11275-0.18547-0.26761-0.18547-0.46457 0-0.17198 0.062062-0.31828 0.18547-0.43959 0.12341-0.1206 0.2725-0.18126 0.44728-0.18126 0.17549 0 0.32244 0.061372 0.44157 0.1834 0.11984 0.12274 0.17905 0.26832 0.17905 0.43745 0 0.19981-0.062062 0.35538-0.18761 0.46671-0.12484 0.11061-0.27322 0.16627-0.44514 0.16627-0.16693 0-0.31174-0.056376-0.43515-0.16841"/>
<path d="m4.187 6.6178c-0.12341-0.11275-0.18547-0.26761-0.18547-0.46457 0-0.17198 0.062062-0.31828 0.18547-0.43959 0.12341-0.1206 0.2725-0.18126 0.44728-0.18126 0.17549 0 0.32244 0.061372 0.44157 0.1834 0.11984 0.12274 0.17905 0.26832 0.17905 0.43745 0 0.19981-0.062062 0.35538-0.18761 0.46671-0.12484 0.11061-0.27322 0.16627-0.44514 0.16627-0.16693 0-0.31174-0.056376-0.43515-0.16841"/>
<path d="m1.9574 4.908c0.10843 0.15557 0.18191 0.34183 0.22114 0.55805 0.038522 0.21623 0.060636 0.51666 0.066343 0.89988 0 0.25833 0.0049935 0.45458 0.014267 0.58945 0.0099871 0.13416 0.030675 0.23621 0.062776 0.30543 0.032101 0.069935 0.07847 0.11703 0.13911 0.14201 0.061349 0.024977 0.15409 0.045672 0.27892 0.062085 0.069909 0.0085635 0.13126 0.03354 0.18547 0.07493 0.054216 0.042104 0.097731 0.10133 0.13126 0.17769 0.032815 0.075644 0.049935 0.16057 0.049935 0.25191 0 0.16413-0.052075 0.2883-0.15623 0.37465s-0.25324 0.12917-0.44728 0.12917c-0.39449 0-0.7098-0.11632-0.94734-0.34753-0.23755-0.23193-0.36025-0.5395-0.36881-0.92271-0.007847-0.40534-0.015694-0.74288-0.022828-1.0119-0.0071336-0.26975-0.027821-0.4717-0.062062-0.60658-0.034955-0.13416-0.095591-0.24691-0.18333-0.33683-0.087744-0.09063-0.22828-0.19553-0.42302-0.31471-0.15837-0.097053-0.23684-0.24977-0.23684-0.45815 0-0.14701 0.029961-0.2569 0.08917-0.32898 0.059922-0.072076 0.15052-0.14487 0.2725-0.21908 0.1227-0.073503 0.22685-0.15771 0.31245-0.25334 0.086317-0.096339 0.15123-0.23621 0.19546-0.4189 0.022828-0.091344 0.042088-0.59873 0.058496-1.52 0.0028534-0.24763 0.060636-0.46742 0.17335-0.66081 0.112-0.19268 0.26608-0.34111 0.46226-0.4453 0.19475-0.10419 0.42231-0.15628 0.68055-0.15628 0.40234 0 0.6035 0.16556 0.6035 0.49597 0 0.14986-0.034955 0.26761-0.10629 0.35396-0.070623 0.085635-0.15765 0.1363-0.26038 0.14986-0.12198 0.014272-0.21258 0.032113-0.2725 0.056376-0.059922 0.02355-0.10629 0.06708-0.13911 0.13059-0.033528 0.064226-0.055642 0.16627-0.067056 0.30614-0.0107 0.14058-0.016407 0.34254-0.016407 0.60658 0 0.27189-0.012841 0.50881-0.037808 0.71005-0.024968 0.20124-0.067769 0.37537-0.12912 0.52237-0.061349 0.14772-0.13839 0.27189-0.23327 0.37537-0.094164 0.10276-0.21615 0.20124-0.36595 0.29544 0.21116 0.13345 0.37023 0.2776 0.47867 0.43317"/>
</g>
<path d="m229.62 49.388c0 2.2365-1.8127 4.0498-4.0483 4.0498l-11.079-7.136e-4c-2.2357 0-4.0483-1.8133-4.0476-4.0505v-11.083c0-2.2372 1.8127-4.0498 4.0483-4.0498l11.079 7.136e-4c2.2357 0 4.0483 1.8133 4.0476 4.0498v11.083z" fill="url(#e)" opacity=".3"/>
<g transform="translate(213.3 37.108)" stroke="#fff" stroke-linecap="round" stroke-linejoin="round" stroke-width=".71348">
<polyline points="4.6945 2.8762 3.7215 5.4652 0.64545 3.4021 2.6543 1.5139"/>
<polygon points="6.7346 2.8762 8.7748 2.8762 10.815 1.5139 8.9324 0.69749 6.7346 0.69749 4.5374 0.69749 2.6541 1.5139 4.6944 2.8762"/>
<polyline points="8.7751 2.8765 9.7481 5.4648 12.824 3.4025 10.815 1.5142"/>
<polyline points="12.824 3.4027 6.734 11.521 9.748 5.4651 6.7347 5.4651 3.7215 5.4651 6.734 11.521 0.64545 3.402"/>
</g>
<path d="m530.82 14.986h-12.064c-2.7243 0-4.9329 2.2094-4.9329 4.9354v1.5286l-1.9632 1.3124c-0.50292 0.33683-0.50292 0.88275 0 1.2196l1.9632 1.3131v1.5286c0 2.7253 2.2086 4.9347 4.9329 4.9347h12.064c2.7243 0 4.9336-2.2094 4.9336-4.9347v-6.9022c0-2.726-2.2093-4.9354-4.9336-4.9354" fill="url(#e)" opacity=".3"/>
<g transform="translate(515.05 19.981)" fill="#fff">
<polygon points="16.953 3.679 13.652 2.4073 13.652 1.065 18.39 3.1188 18.39 4.2585 13.652 6.3123 13.652 4.9792"/>
<path d="m8.2136 0.50432c0-0.13202 0.042088-0.2355 0.12484-0.31114 0.083463-0.075644 0.20331-0.11275 0.36025-0.11275 0.18262 0 0.30461 0.053522 0.36738 0.15985 0.062776 0.10704 0.12841 0.30472 0.19831 0.59373l1.3126 5.4314c0.063489 0.28902 0.094877 0.46885 0.094877 0.54164 0 0.27617-0.15979 0.41461-0.48081 0.41461-0.12841 0-0.22614-0.029259-0.29391-0.087062-0.067056-0.058517-0.1177-0.13916-0.15123-0.24263-0.032101-0.10419-0.070623-0.24549-0.11485-0.42461l-1.3183-5.4307c-0.065629-0.25762-0.099157-0.43531-0.099157-0.53236"/>
<polygon points="0.50107 3.1281 5.2385 1.0836 5.2385 2.4073 1.9278 3.6883 5.2385 4.9885 5.2385 6.3216 0.50107 4.2585"/>
</g>
<g transform="translate(74.19 111.8)" fill="url(#e)" opacity=".3">
<polygon points="0 234.78 43.924 234.78 43.924 90.63 0 90.63"/>
<polygon points="257.59 234.78 301.51 234.78 301.51 90.63 257.59 90.63"/>
<polygon points="64.769 234.78 108.69 234.78 108.69 144.87 64.769 144.87"/>
<polygon points="322.36 234.78 366.28 234.78 366.28 144.87 322.36 144.87"/>
<polygon points="129.54 234.78 173.46 234.78 173.46 102.76 129.54 102.76"/>
<polygon points="387.12 234.78 431.05 234.78 431.05 102.76 387.12 102.76"/>
<polygon points="193.56 234.78 237.49 234.78 237.49 0 193.56 0"/>
<polygon points="451.15 234.78 495.07 234.78 495.07 0 451.15 0"/>
</g>
<path d="m121.77 52.266c-0.78898 0-1.4317 0.64226-1.4317 1.433 0 0.78927 0.64274 1.4322 1.4317 1.4322 0.78969 0 1.4317-0.64297 1.4317-1.4322 0-0.79069-0.64203-1.433-1.4317-1.433m0 3.7508c-1.2776 0-2.317-1.0397-2.317-2.3178 0-1.2788 1.0394-2.3186 2.317-2.3186 1.2783 0 2.3177 1.0397 2.3177 2.3186 0 1.2781-1.0394 2.3178-2.3177 2.3178" fill="#fff"/>
<g transform="translate(354.54 39.963)" fill="#E3F0FF">
<path d="m10.086 0.30561 2.4499 5.8576 6.2722 0.54431c0.43502 0.037952 0.61199 0.58626 0.28177 0.87489l-4.7575 4.1637 1.4257 6.1941c0.098868 0.43045-0.36285 0.76902-0.73657 0.54031l-5.3903-3.2838-5.3903 3.2838c-0.37471 0.22771-0.83543-0.11086-0.73657-0.54031l1.4257-6.1941-4.7585-4.1647c-0.33022-0.28863-0.15423-0.83694 0.28177-0.87489l6.2722-0.54431 2.4499-5.8566c0.17005-0.40748 0.74052-0.40748 0.91057 0z"/>
</g>
<g transform="translate(583.53 77.785)" fill="#E3F0FF">
<path d="m10.086 0.30561 2.4499 5.8576 6.2722 0.54431c0.43502 0.037952 0.61199 0.58626 0.28177 0.87489l-4.7575 4.1637 1.4257 6.1941c0.098868 0.43045-0.36285 0.76902-0.73657 0.54031l-5.3903-3.2838-5.3903 3.2838c-0.37471 0.22771-0.83543-0.11086-0.73657-0.54031l1.4257-6.1941-4.7585-4.1647c-0.33022-0.28863-0.15423-0.83694 0.28177-0.87489l6.2722-0.54431 2.4499-5.8566c0.17005-0.40748 0.74052-0.40748 0.91057 0z"/>
</g>
<g transform="translate(607.07 131.31)" fill="#E3F0FF">
<path d="m5.6032 0.16456 1.3611 3.1541 3.4845 0.29309c0.24168 0.020436 0.34 0.31568 0.15654 0.47109l-2.6431 2.242 0.79204 3.3353c0.054927 0.23178-0.20158 0.41409-0.4092 0.29094l-2.9946-1.7682-2.9946 1.7682c-0.20817 0.12261-0.46413-0.059693-0.4092-0.29094l0.79204-3.3353-2.6436-2.2425c-0.18345-0.15542-0.085686-0.45066 0.15654-0.47109l3.4845-0.29309 1.3611-3.1535c0.094474-0.21941 0.4114-0.21941 0.50587 0z"/>
</g>
<path d="m360.49 456.46c129.81-15.724 267.04-15.724 267.04-35.121s-119.56-35.121-267.04-35.121-267.04 15.724-267.04 35.121 137.23 50.845 267.04 35.121z" fill="url(#h)" opacity=".35313"/>
<path transform="translate(593.43 378.02) scale(-1 1) rotate(-4) translate(-593.43 -378.02)" d="m593.43 388.01c32.943-4.7619 67.77-4.7628 67.77-10.636 1.49e-4 -5.8731-30.341-10.633-67.769-10.632s-67.77 4.7628-67.77 10.636c-1.49e-4 5.8731 34.826 15.394 67.769 10.632z" fill="url(#h)" opacity=".62671"/>
<g transform="translate(0 64.94)">
<g transform="translate(137.68 67.08)">
<path d="m73.129 6.5619s9.3414 0.68024 12.984 10.499c3.6423 9.8183 8.0421 6.6065 8.0421 6.6065s-3.9792 11.412-14.51 4.2157c-10.533-7.1964-6.5161-21.321-6.5161-21.321" fill="url(#c)"/>
<polygon points="47.834 289.65 50.973 289.65 76.548 139.39 70.069 139.39" fill="#8585E0"/>
<polygon points="289.18 289.65 286.04 289.65 260.46 139.39 266.94 139.39" fill="#8585E0"/>
<polygon points="65.894 272.82 71.635 272.82 71.635 217.2 65.894 217.2" fill="url(#a)"/>
<polygon points="64.15 217.2 73.379 217.2 73.379 209.11 64.15 209.11" fill="url(#a)"/>
<polygon points="65.279 268.77 72.249 268.77 72.249 251.42 65.279 251.42" fill="url(#a)"/>
<polygon points="64.15 276.87 73.379 276.87 73.379 268.77 64.15 268.77" fill="url(#a)"/>
<path d="m101.09 195.59v3.8912c0 0.65822-0.53291 1.191-1.1913 1.191h-19.949v8.4327h-22.374v-8.4327h-17.714c-0.65843 0-1.1913-0.53274-1.1913-1.191v-9.0963-3.3761c0-1.9923 1.6164-3.6059 3.6093-3.6059h79.602c1.9907 0 3.6093 1.6136 3.6093 3.6059v4.973c0 1.9923-1.6186 3.6081-3.6093 3.6081h-20.792z" fill="url(#p)"/>
<polygon points="46.529 284.61 64.15 275.87 64.15 269.78 44.217 283.14" fill="url(#a)"/>
<path d="m40.088 286.32c0 2.2785 1.8476 4.1255 4.129 4.1255 2.2792 0 4.1268-1.847 4.1268-4.1255 0-2.2807-1.8476-4.1277-4.1268-4.1277-2.2814 0-4.129 1.847-4.129 4.1277" fill="url(#a)"/>
<path d="m64.636 286.32c0 2.2785 1.8476 4.1255 4.129 4.1255 2.2792 0 4.129-1.847 4.129-4.1255 0-2.2807-1.8498-4.1277-4.129-4.1277-2.2814 0-4.129 1.847-4.129 4.1277" fill="url(#a)"/>
<polygon points="91.002 284.61 73.38 275.87 73.38 269.78 93.314 283.14" fill="url(#a)"/>
<path d="m97.442 286.32c0 2.2785-1.8498 4.1255-4.129 4.1255s-4.129-1.847-4.129-4.1255c0-2.2807 1.8498-4.1277 4.129-4.1277s4.129 1.847 4.129 4.1277" fill="url(#a)"/>
<polygon points="67.647 286.27 69.884 286.27 69.884 272.82 67.647 272.82" fill="url(#a)"/>
<path d="m28.297 195.48c-2.0656 0.063841-3.9044-1.3142-4.391-3.3219-1.5107-6.2168-4.2479-17.82-4.3095-46.818-0.068266-32-6.7209-56.332-9.0111-66.586-0.63641-2.8442 0.64742-5.7633 3.1733-7.2184 1.3675-0.78591 2.9178-1.1998 4.4923-1.1998h55.619s22.865 40.887 25.864 54.897c2.9993 14.012 7.1877 67.79 7.1877 67.79l-78.624 2.4568z" fill="url(#a)"/>
<path d="m30.11 195.59s-5.1948-10.184-5.2807-50.247c-0.07267-32.993-6.6284-60.169-8.5222-70.661-0.40739-2.2697 1.3367-4.3434 3.6423-4.3434h59.153s22.867 40.887 25.864 54.897c2.9971 14.012 7.1899 67.79 7.1899 67.79l-82.047 2.5646z" fill="url(#b)"/>
<path d="m27.759 195.59h56.306v-12.187h-59.189v9.3054c0 1.5916 1.2904 2.8817 2.8826 2.8817" fill="url(#o)"/>
<path d="m126.73 173.71c0.33328 6.6145-1.1157 14.86-2.9415 22.162-2.942 11.771-14.23 90.212-14.23 90.212h-8.3416s-2.1427-30.906-3.6159-53.472c-1.0901-16.725 1.3945-38.806 2.7544-49.12-5.7739-2.4084-24.568-11.222-31.038-26.254l-7.6854-17.851 16.514-6.5712 27.588 13.057c6.2542 5.8341 24.657 15.674 20.996 27.839z" fill="#34406B"/>
<path d="m47.047 56.258s8.6015-2.7232 9.4691-6.4678c0.70248-3.0402 1.8278-12.482 1.8278-12.482h15.003s-0.57255 8.438 0 11.17c1.4292 6.7936 9.9536 9.0302 9.9536 9.0302l1.2178 21.224-22.118 18.536-21.341-21.433 5.9876-19.577z" fill="#FEC4AD"/>
<path d="m81.359 14.173c3.7832 5.0456 3.0125 5.7589 2.4928 12.709-0.44483 5.9768-1.9731 11.718-2.9839 14.309-1.0196 2.6197-6.3531 13.887-15.866 9.7743-5.2631-2.2763-11.237-7.8811-12.959-11.738-1.264-2.8244-1.9313-7.9207-2.0304-12.627-0.094691-4.623-0.11891-10.62 0.046244-14.067 0.58356-12.178 24.377-7.5905 31.301 1.6401" fill="#FEC4AD"/>
<path d="m105.73 95.144c1.286 5.4067 2.8848 10.681 4.8425 14.1 1.9599 3.4188 42.411 18.322 42.411 18.322h-23.627s-22.49-2.9521-28.907-11.568c-6.417-8.6185-12.369-20.854-12.369-20.854h17.65z" fill="#FEC4AD"/>
<path d="m102.06 184.17c1.6736-9.5013-3.4882-15.029-8.3835-18.626-5.3423-5.301-12.385-10.461-17.775-19.174 0 0-14.232-5.9482-23.378-2.7628-9.1454 3.1832-13.618 7.399-13.618 7.399-2.1933 10.556 2.9971 33.622 37.333 39.648 0 0-14.285 25.768-19.191 47.355-4.9085 21.587-12.092 44.955-12.092 44.955l9.326-2.23s9.9404-19.254 15.525-28.453c8.1456-13.424 21.321-40.618 28.055-56.598 1.1649-1.9461 2.5214-4.7815 3.2525-8.2685 0.48887-1.4045 0.81919-2.5184 0.94691-3.2427" fill="#44527E"/>
<path d="m91.244 60.461c4.184 1.8602 8.0487 12.427 11.138 21.431 3.0896 9.0038 3.3494 13.253 3.3494 13.253s-10.81 6.1794-16.545 4.634c0 0-5.4458-19.557-1.6934-29.437l3.7502-9.88z" fill="url(#g)"/>
<path d="m109.87 148.34c-5.7255-3.7116-14.912-8.7708-16.013-9.8715-2.4532-2.4524-7.5958-23.607-0.53886-32.502 7.0569-8.8954 4.8556-16.272 0-23.094-4.8556-6.822-2.0684-22.415-2.0684-22.415l-7.9452-2.9521s2.4377 18.327-16.829 18.327c-19.341 0-19.425-19.577-19.425-19.577l-12.327 2.7298s-0.90947 23.863-0.45143 34.692c0.45804 10.827 5.6044 29.585 7.0754 39.397 1.1451 7.6367-0.97554 12.306-2.4355 17.931 9.8082-3.8547 20.581-4.8057 31.479-4.4292 20.858 0 14.96 22.074 39.479 1.7659z" fill="url(#g)"/>
<path d="m109.89 280.45s-0.24454 2.4788-3.8604 3.5971c-3.6139 1.1183-4.9401-2.8324-6.0753-2.164-0.7568 0.4456-1.0234 3.1445-0.79975 8.0968 17.11 1.8477 26.633 1.9123 28.569 0.19372 1.9359-1.7185-4.0084-4.9598-17.833-9.7237z" fill="url(#f)"/>
<path d="m111.71 125.7c-3.5278-0.41827-6.9124-3.7138-20.568-3.8789-2.4532-0.028618-18.674-3.1921-23.063-4.4865-8.6191-2.5404-13.019-5.6158-13.019-5.6158s-5.0054-18.653-6.9146-30.485c-5.5515-0.60979-11.088-1.3208-16.589-2.252-0.19819 14.776 10.275 41.048 13.761 43.67 6.7847 5.1029 22.73 4.8475 26.558 4.918 8.8701 0.1607 46.669 1.18 46.669 1.18s2.9134-1.891-6.8354-3.049" fill="#FEC4AD"/>
<path d="m52.604 99.917s-5.0274-29.523-6.4852-32.629c-7.5334-16.055-17.879-7.5002-16.362 4.9246 0.64522 5.29 1.057 18.959 3.7326 31.87 6.0184 0.33021 14.939-1.7633 19.114-4.1651" fill="url(#g)"/>
<g transform="translate(65.629 76.358)">
<polygon points="38.034 52.388 52.921 52.388 67.803 0.32693 56.486 0.32693" fill="#BFC7D5"/>
<polygon points="42.307 52.388 100.4 52.388 115.28 0.32693 57.191 0.32693" fill="#D2DCEB"/>
<polygon points="33.761 55.092 100.4 55.092 100.4 51.208 33.761 51.208" fill="#D2DCEB"/>
<polygon points="0.4429 55.092 33.761 55.092 33.761 51.208 0.4429 51.208" fill="#BFC7D5"/>
<path d="m74.212 28.89c-1.6824 3.9868-0.49988 8.2905 2.6403 9.6136 3.1424 1.3253 7.0512-0.83214 8.7336-4.8167 1.6802-3.9868 0.49768-8.2905-2.6425-9.6136-3.1424-1.3253-7.0512 0.83214-8.7314 4.8167" fill="#BFC7D5"/>
</g>
<path d="m336.45 276.87v5.4737c1.7359 0.4877 3.0096 2.0816 3.0096 3.9741 0 2.2785-1.8498 4.1255-4.129 4.1255s-4.129-1.847-4.129-4.1255c0-1.893 1.2744-3.4872 3.011-3.9745v-5.4733h-3.497v-0.99867l-16.486 8.1726c0.43129 0.65192 0.68248 1.4335 0.68248 2.2739 0 2.2785-1.8498 4.1255-4.129 4.1255-2.2814 0-4.129-1.847-4.129-4.1255 0-2.2807 1.8476-4.1277 4.129-4.1277 0.40467 0 0.7958 0.058223 1.1654 0.16676l18.767-12.575v-1.0091h1.1319v-17.356h0.61219v-34.214h-1.7441v-8.0968h-6.5711v-8.4327h-19.949c-0.65843 0-1.1913-0.53274-1.1913-1.191v-9.0963c0-0.65822 0.53291-1.191 1.1913-1.191h60.034c0.65843 0 1.1913 0.53274 1.1913 1.191v9.0963c0 0.65822-0.53291 1.191-1.1913 1.191h-17.711v8.4327h-6.5733v8.0968h-1.7441v34.214h0.61439v17.356h1.1297v8.0968h-3.4948zm19.982 7.1739-16.487-8.1727v-6.0891l18.768 12.575c0.36964-0.10854 0.76077-0.16676 1.1654-0.16676 2.2814 0 4.129 1.847 4.129 4.1277 0 2.2785-1.8476 4.1255-4.129 4.1255-2.2792 0-4.129-1.847-4.129-4.1255 0-0.84042 0.25118-1.622 0.68248-2.2739z" fill="url(#b)"/>
<path transform="translate(57.42 285.2) rotate(15) translate(-57.42 -285.2)" d="m53.751 279.71s-0.24432 2.4787-3.8602 3.5967c-3.6139 1.118-4.8305-3.4225-6.0756-2.1645-0.83009 0.83865-1.0964 3.5375-0.79903 8.0965 17.11 1.8492 26.633 1.9146 28.569 0.19632 1.9358-1.7183-4.009-4.96-17.834-9.725z" fill="url(#f)"/>
<path d="m375.8 195.48c2.0656 0.063841 3.9022-1.3142 4.391-3.3219 1.5084-6.2168 4.2479-17.82 4.3095-46.818 0.068266-32 16.846-56.332 19.139-66.586 0.63641-2.8442-0.64742-5.7633-3.1755-7.2184-1.3675-0.78591-2.9156-1.1998-4.4923-1.1998h-65.746s-22.865 40.887-25.862 54.897c-2.9993 14.012-7.1899 67.79-7.1899 67.79l78.627 2.4568z" fill="url(#v)"/>
<path d="m373.99 195.59s5.197-10.184 5.2829-50.247c0.070468-32.993 16.754-60.169 18.645-70.661 0.40959-2.2697-1.3323-4.3434-3.6379-4.3434h-69.283s-22.865 40.887-25.862 54.897c-2.9993 14.012-7.1899 67.79-7.1899 67.79l82.044 2.5646z" fill="url(#b)"/>
<path d="m376.34 195.59h-74.52v-12.187h77.402v9.3054c0 1.5916-1.2904 2.8817-2.8826 2.8817" fill="url(#b)"/>
<path d="m311.49 195.59h-29.277c-1.9929 0-3.6093-1.6158-3.6093-3.6081v-4.973c0-1.9923 1.6164-3.6059 3.6093-3.6059h25.668c1.9951 0 3.6093 1.6136 3.6093 3.6059v8.5811z" fill="url(#b)"/>
<path d="m342.65 77.772c-1.3323 4.361-3.1931 8.3522-5.2124 12.299-2.0326 3.9339-4.3448 7.7138-6.7605 11.445-2.3959 3.7446-4.827 7.4826-7.3463 11.218-1.2574 1.8712-2.5523 3.7358-3.9088 5.5982-1.3609 1.8734-2.746 3.738-4.3448 5.7039-0.82139 0.99504-1.6406 1.9835-2.8363 3.2075-0.30169 0.3082-0.64082 0.64061-1.0702 1.0237-0.44262 0.38745-0.92489 0.81673-1.8322 1.4199-0.20039 0.13429-0.53952 0.33902-0.81478 0.49092-0.40079 0.21134-0.69587 0.36764-1.2882 0.60099-0.26425 0.10126-0.50869 0.19372-0.92048 0.3126l-0.56374 0.14529-0.28848 0.061639-0.38537 0.066043c-0.25985 0.039625-0.5197 0.070445-0.77955 0.090258l-0.37876 0.022014h-0.081479l-0.33252-0.002201-0.66724-0.026417c-0.2048-0.011008-0.49107-0.028619-0.57475-0.04623l-0.75753-0.10347c-0.91828-0.1475-1.5701-0.29719-2.2175-0.4601-0.64082-0.1607-1.2354-0.32361-1.8145-0.48651-1.1627-0.32801-2.255-0.66483-3.345-1.0016-4.3316-1.3561-8.4848-2.7496-12.631-4.1893l-12.332-4.2157c-2.0414-0.66923-4.0673-1.3693-6.0624-1.9791-1.9489-0.59658-4.0541-1.2306-5.4921-1.53l-0.53071-0.11227c-2.9068-0.60539-3.2305-3.5399-4.162-6.3555-1.5151-4.5789 45.311 1.4309 45.311 1.4309 1.0394 0.17391 2.0766 0.34562 3.0543 0.48211 0.49107 0.068243 0.96893 0.12988 1.4027 0.17611 0.42941 0.044028 0.85222 0.083654 1.0196 0.072647 0.019819-0.006605 0.041841-0.011007 0.06166-0.013209 0.050648 0.004403-0.096894-0.019813-0.16516-0.024215-0.085883-0.008806-0.17176-0.013209-0.25765-0.013209l-0.12552 0.002201-0.35894 0.017612c-0.22682 0.01541-0.45364 0.041827-0.67825 0.077049l-0.57475 0.11007-0.46244 0.11668c-0.34573 0.10347-0.52631 0.16731-0.7289 0.24436-0.46024 0.18712-0.63862 0.27518-0.91608 0.42487-0.16076 0.079251-0.37876 0.22014-0.46905 0.27298-0.45364 0.29719-0.5197 0.36544-0.56154 0.38084-0.030829 0.011007 0.013213-0.050633 0.081479-0.14529 0.28628-0.38965 0.81258-1.1315 1.3015-1.8888 2.0634-3.1436 4.151-6.9345 6.2364-10.604 2.081-3.7138 4.1246-7.5068 6.1417-11.324 1.9907-3.8327 4.0277-7.6565 6.2981-11.351 2.2792-3.6808 4.6795-7.3395 7.5489-10.661l0.07267-0.083654c3.4749-4.0242 9.5572-4.4711 13.583-0.99724 2.9751 2.5691 3.9902 6.569 2.9178 10.1" fill="#E4B083"/>
<path d="m267.91 112.01s-12.136-5.5101-13.765-5.6973c-1.6296-0.18492-14.072 1.0259-14.829 1.0413-0.75973 0.01541-7.8065 5.5674-8.7424 7.6433-0.9381 2.0781-0.85222 6.5184 0.12552 6.6087 0.97774 0.088057 1.3279-4.2509 1.3279-4.2509l3.8383-3.2845 2.2638-0.73307s-2.9398 4.9312-2.9266 5.7985c0.017617 0.86516-0.1013 5.9614 0.65623 5.946 0.75973-0.013208 1.242-3.1656 1.427-4.7947 0.18498-1.6268 3.9242-4.5327 3.9242-4.5327s-2.6161 4.8321-2.4884 5.9152c0.12992 1.0809-0.24444 4.2311 0.94471 4.099 1.1913-0.13208 1.6538-4.2575 1.6538-4.2575s1.9907-3.6147 2.8473-4.1717c0.85442-0.55916 9.555 0.90038 13.655-0.044028 4.1003-0.94441 10.451 2.4017 12.065 1.8272 1.6164-0.57017 3.4485-6.7826-1.9775-7.1128" fill="#E4B083"/>
<path d="m311.25 89.552s-2.1669 2.6857-2.3386 3.9361c-0.17176 1.2482 14.063 12.502 18.918 11.163l2.8297-4.11s-19.238-10.56-19.409-10.989" fill="#F7837F"/>
<path d="m311.1 87.84s9.7466-24.896 23.437-19.344c13.688 5.5542-1.3433 29.083-2.7901 32.024-1.4446 2.9433-22.677-8.3037-20.647-12.68" fill="url(#l)"/>
<path d="m334.23 60.152s-4.7786 3.8062-5.8664 7.0996c0 0 2.1096-2.7165 2.9618-2.0781 0.85002 0.64061 1.6824 1.9901 1.6824 1.9901s2.1537 0.73527 2.125-1.1271c-0.030829-1.8624 2.5589-3.4078-0.90287-5.8844" fill="url(#k)"/>
<path d="m363.24 84.495s-1.7573-8.11-5.9083-12.988c-4.1466-4.8805-6.1835-17.97 0.015415-27.727 6.9477-10.932 11.165-29.244-4.8204-34.186-19.731-6.1001-26.558 6.0143-27.5 10.776-0.29729 1.5036-0.70688 3.5025-0.40519 4.2113l0.65843 0.79691c0.34133 0.80792 0.207 1.7303-0.35234 2.4017-1.5018 1.8008-5.1508 5.1227-6.08 6.5668-1.1649 1.8096 3.6379 3.4562 3.6379 3.4562s-1.057 2.9785-0.45584 3.4606c0.60338 0.48431 2.5809 0.72427 2.5809 0.72427s-2.1316 1.279-1.0746 2.3599c1.0548 1.0809 0.84341 3.0049 0.84341 3.0049s-1.1473 2.6175 0.38537 4.0418c2.4686 2.2917 4.761 1.1227 9.0727 2.7672 3.0565 1.1668 4.391 12.44-10.515 20.416-11.735 6.2784 35.811 13.946 39.918 9.9174" fill="#F6C7A1"/>
<path d="m329.64 19.197c0.039638-0.22454 0.068265-0.42928 0.090287-0.60979 0.24884 0.026417 0.50649 0.055035 0.75092 0.083654-0.27526 0.18052-0.55714 0.35663-0.84121 0.52614m34.177-6.9961 1.5701 0.23555c-0.47346-1.9086-3.922-3.7072-3.922-3.7072l2.6425-0.21794c-1.7066-1.6357-4.3448-1.6555-4.3448-1.6555l-0.35454-2.7077-0.61659 2.3313c-1.667-3.2383-3.2085-4.0528-3.2085-4.0528l-0.12332 3.1744c-0.65843-1.2196-2.9861-3.9956-2.9861-3.9956l0.40959 2.9587c-3.519-3.7798-8.7887-3.6235-8.7887-3.6235 1.3345 0.35003 3.4353 3.1965 3.4353 3.1965-7.2097-4.4226-13.783-3.6367-13.783-3.6367 1.057 0.25316 3.312 2.8574 3.312 2.8574-4.0937-1.1381-9.4977-0.54595-9.4977-0.54595 2.5434 0.49312 3.9 2.098 3.9 2.098-4.5342 1.6555-9.3216 0.21354-9.3238 0.21354-0.15855 1.1822 4.5716 3.8371 1.7088 3.8393-0.75753 0-1.5129 0.0022014-2.2704 0.0022014-0.60558 0-1.2398 0.0066042-1.7727 0.29279-0.24664 0.13429-0.46244 0.32141-0.66504 0.51513-2.3078 2.1904-1.4908 5.0655 0.8302 6.9367 1.2838 1.0347 1.7573 1.6202 2.7813 3.0864 0.85882 1.2306 1.8916 2.547 3.3252 3.1326 1.623 0.66483 2.5412-0.4645 3.0609-1.8228 3.2305 0.26857 6.2782-2.2917 9.0419 0.71326 0.70468 0.76609 1.1561 1.7325 1.8234 2.5338 0.4162 0.49972 6.036 3.2141 5.7255 3.5619-0.6276 0.69565-1.7749 2.1332-1.6846 3.2735l0.79717-0.51733s-0.97774 2.6285-0.67825 4.1761l1.1935-1.2152-0.12332 1.1491c-0.36555 1.4309-1.0218 3.5421-1.8013 3.8855 0 0 0.73991-0.1563 1.5767-1.0897 1.1033 3.1238 3.3472-2.8354 5.3445-6.864 1.9467-3.9207 7.4432-2.2939 7.104 2.4326-0.12992 0.83874-0.78395 3.7996-3.0103 6.0473 0 0-2.4928 2.4656-2.5875 7.465l0.79496-0.90919s-0.56594 3.672 0.44923 4.8079c0 0 0.48887-1.2108 0.49327-1.2262-0.48226 1.1976 0.66724 2.1904 0.49548 3.3638-0.1035 0.70445-1.3301 2.5492 0.45584 2.0187 1.1671-0.34562 2.7725-1.3297 2.9574-2.5933 0.04184-0.28618-0.083681-4.667 0.19599-4.5922 0.13873 0.035223 1.209 0.23995 1.22 0.32141-0.002202-0.028618-0.2048-1.4882-0.30169-2.4546-0.099096-0.97523 3.6071-5.4969 3.6071-5.4969l-0.56374 2.142c2.9288-3.3836 4.0123-9.869 4.0123-9.869l0.30169 2.4568c2.6359-5.4815 1.1473-13.283 1.1473-13.283l1.4886 1.5058c0.7333-3.2405-4.794-10.648-4.794-10.648" fill="url(#d)"/>
<path d="m343.02 153.3s-7.3044-3.9053-81.5 6.5756c-2.4598 0.34782-6.9345 3.3836-8.1236 5.8602-3.5278 7.3417 0.75092 61.27 5.6881 85.774 2.9795 14.791 4.402 7.5597 8.4848 8.0066 5.8907 0.64281 1.6406-48.495 1.7022-47.656 1.4622 20.682-0.48006-22.835-3.0962-30.247 0 0 73.024 19.315 76.845-28.312" fill="#86213E"/>
<path d="m343.31 177.5 8.8459-1.9042c15.364-3.3109 21.328-17.955 18.123-32.828l3.1909-62.974c0.42501-8.3214-5.3908-15.678-13.594-17.164-7.0556-1.2768-14.43-1.1469-16.164-0.22895l-7.9607 2.1838c-14.644 3.1546-20.134 7.8194-19.487 35.817l7.1327 64.7c1.8894 8.7726 10.85 14.351 19.912 12.398" fill="url(#u)"/>
<path d="m366.78 179.08c5.4128-5.9218 4.543-21.197-3.2129-23.269-12.629-3.377-41.431-4.1189-92.062 9.8315-2.462 0.68024-4.3756 2.8728-5.8686 5.268-9.4471 15.144-38.592 74.155-41.567 83.238-3.4309 10.481-15.124 38.113 23.563-13.829 7.0908-9.5189 27.071-34.936 33.281-48.656 1.0724-2.3709 3.4353-3.8877 6.036-4.022 15.018-0.79031 64.833 7.8569 79.831-8.5613" fill="#9D2B4C"/>
<path d="m331.4 115.17c-0.01982 0.002201-0.041841 0.006604-0.059458 0.013208-0.12332 0.008806-0.38537-0.011007-0.68486-0.037424l0.19599-0.011007 0.12772-0.002202c0.085883 0 0.16956 0.006605 0.25545 0.013209 0.066063 0.006604 0.21581 0.028618 0.16516 0.024216m35.965-45.444c-4.0255-3.476-10.108-3.0291-13.583 0.99504l-0.07267 0.083654c-2.8694 3.3219-5.2697 6.9829-7.5489 10.661-2.2704 3.6962-4.3073 7.5178-6.2981 11.351-2.0171 3.8195-4.0607 7.6103-6.1417 11.326-2.081 3.661-4.162 7.4386-6.221 10.578-0.53952-0.085856-1.0878-0.17611-1.6384-0.26857 0 0-42.915-5.5035-44.434-5.4485-2.4135 0.088056-0.36115 1.5498-0.87644 4.0176-0.60558 2.9037 1.2552 5.7501 4.162 6.3577l0.53071 0.11007c1.438 0.29939 3.5432 0.9334 5.4921 1.5322 1.9951 0.60979 4.0189 1.3076 6.0602 1.9769l12.336 4.2179c4.1466 1.4375 8.2976 2.8332 12.629 4.1871 1.09 0.33902 2.1823 0.67363 3.345 1.0016 0.57916 0.16511 1.1715 0.32801 1.8145 0.48651 0.64742 0.1629 1.3015 0.3148 2.2197 0.4623l0.75533 0.10347c0.081479 0.01541 0.36996 0.033021 0.57475 0.046229l0.66724 0.024216 0.33032 0.004403h0.083681l0.37876-0.022014c0.25985-0.022015 0.5219-0.050633 0.77955-0.090258l0.38757-0.068244 0.28628-0.06164 0.56154-0.14309c0.414-0.11888 0.65843-0.21134 0.92269-0.3126 0.59017-0.23555 0.88745-0.39185 1.286-0.60319 0.27747-0.1519 0.61659-0.35663 0.81698-0.49092 0.90507-0.60319 1.3895-1.0303 1.83-1.4177 0.43162-0.38525 0.76854-0.71546 1.0746-1.0259 1.1957-1.2218 2.0149-2.2102 2.8363-3.2075 1.5965-1.9659 2.9817-3.8305 4.3404-5.7017 1.3609-1.8646 2.6536-3.727 3.911-5.6004 2.517-3.7358 4.9482-7.4716 7.3441-11.218 2.4179-3.7314 4.7301-7.5112 6.7605-11.443 2.0215-3.9493 3.8823-7.9383 5.2124-12.302 1.0768-3.5311 0.061659-7.531-2.9156-10.098" fill="#F6C7A1"/>
<path d="m367.51 69.874c0.53512 1.8052 0.54613 3.7446-0.006606 5.563-1.3301 4.361-3.1931 8.3522-5.2124 12.299-2.0304 3.9317-4.3426 7.7138-6.7605 11.445-2.3959 3.7446-4.827 7.4804-7.3463 11.218-1.2552 1.8712-2.5501 3.7336-3.9088 5.5982-1.3609 1.8734-2.746 3.7358-4.3426 5.7017-0.82139 0.99724-1.6428 1.9857-2.8385 3.2097-0.30169 0.3082-0.64082 0.63841-1.0702 1.0237-0.44263 0.38745-0.92489 0.81673-1.8322 1.4199-0.19819 0.13429-0.53952 0.33902-0.81478 0.49092-0.40078 0.21134-0.69587 0.36764-1.2882 0.60099-0.26205 0.10126-0.50649 0.19372-0.92048 0.3126l-0.56154 0.14309-0.29068 0.063841-0.38317 0.066042c-0.25985 0.039626-0.5197 0.070446-0.77955 0.090259l-0.37876 0.022014h-0.08368l-0.33252-0.004403-0.66504-0.024216c-0.2048-0.011007-0.49327-0.03082-0.57695-0.046229l-0.75533-0.10347c-0.92048-0.1475-1.5723-0.29719-2.2175-0.4601-0.64302-0.1607-1.2354-0.32361-1.8167-0.48651-1.1605-0.32801-2.2528-0.66483-3.3428-1.0016-4.3316-1.3561-8.487-2.7496-12.631-4.1893l-12.334-4.2179c-2.0414-0.66703-4.0651-1.3671-6.0602-1.9769-1.9511-0.59878-4.0541-1.2306-5.4921-1.5322l-0.53071-0.11007c-0.53512-0.11227-1.0152-0.3192-1.4666-0.56576 0.12992 2.3665 1.8123 4.4491 4.2435 4.9576l0.53291 0.11227c1.438 0.29939 3.5432 0.9334 5.4921 1.53 1.9951 0.60979 4.0189 1.3098 6.0602 1.9791l12.334 4.2157c4.1466 1.4397 8.2998 2.8332 12.631 4.1893 1.09 0.33682 2.1823 0.67363 3.3428 1.0016 0.58136 0.1629 1.1715 0.32581 1.8145 0.48651 0.64742 0.1629 1.3015 0.3148 2.2197 0.4601l0.75753 0.10347c0.081479 0.017611 0.36996 0.035222 0.57475 0.04623l0.66504 0.026417 0.33252 0.002201h0.083681l0.37876-0.022014c0.25985-0.019813 0.5197-0.050633 0.77735-0.090258l0.38757-0.066043 0.28848-0.061639 0.56154-0.14529c0.4118-0.11888 0.65843-0.20914 0.92269-0.3104 0.58796-0.23555 0.88525-0.39185 1.286-0.60319 0.27747-0.1519 0.61659-0.35663 0.81698-0.49092 0.90507-0.60319 1.3895-1.0325 1.83-1.4199 0.42941-0.38305 0.76634-0.71546 1.0724-1.0237 1.1958-1.224 2.0149-2.2124 2.8363-3.2075 1.5987-1.9659 2.9839-3.8305 4.3426-5.7039 1.3587-1.8624 2.6536-3.727 3.9088-5.5982 2.5192-3.7358 4.9482-7.4738 7.3441-11.218 2.4201-3.7314 4.7324-7.5112 6.7627-11.445 2.0215-3.9471 3.8801-7.9383 5.2124-12.299 1.0548-3.4694 0.08368-7.3836-2.7725-9.9548" fill="#EFB888"/>
<path d="m292.05 113.44s-12.138-5.5101-13.765-5.6973c-1.6296-0.18492-14.074 1.0259-14.829 1.0413-0.75973 0.01541-7.8065 5.5674-8.7446 7.6433-0.9359 2.0759-0.85002 6.5184 0.12772 6.6065 0.97554 0.090258 1.3279-4.2509 1.3279-4.2509l3.8383-3.2823 2.2638-0.73307s-2.942 4.9312-2.9266 5.7985c0.017617 0.86516-0.1013 5.9614 0.65623 5.946 0.75973-0.013209 1.242-3.1656 1.427-4.7947 0.18498-1.629 3.9242-4.5327 3.9242-4.5327s-2.6183 4.8321-2.4906 5.9152c0.12992 1.0787-0.24223 4.2311 0.94691 4.099 1.1891-0.13208 1.6538-4.2575 1.6538-4.2575s1.9885-3.6147 2.8473-4.1717c0.85442-0.55916 9.555 0.90038 13.655-0.044028s10.451 2.4017 12.065 1.8272c1.6164-0.57237 3.4485-6.7826-1.9775-7.1128" fill="#F6C7A1"/>
<path d="m260.69 115.28c1.1495-0.37204 1.5789-0.51073 1.5789-0.51073l-2.887-0.40946-3.8383 3.2845s-0.35014 4.3412-1.3279 4.2509c-0.008809-0.002201-0.017617-0.008805-0.026426-0.011007 0.12552 0.67143 0.34353 1.1249 0.64962 1.1513 0.97554 0.090258 1.3279-4.2509 1.3279-4.2509l3.8383-3.2823 0.68486-0.22234z" fill="#EFB888"/>
<path d="m296.15 119.9c-1.6978-0.57897-1.7463-0.84094-2.7438-0.48872-1.6142 0.57457-7.9651-2.7738-12.068-1.8272-4.1003 0.94441-12.799-0.51513-13.655 0.041827-0.85442 0.55916-2.8473 4.1717-2.8473 4.1717s-0.46244 4.1277-1.6538 4.2575c-0.070468 0.008805-0.13433 0.004403-0.19599-0.011007 0.1035 0.69345 0.32591 1.2086 0.81919 1.1535 1.1913-0.12988 1.6538-4.2575 1.6538-4.2575s1.9907-3.6125 2.8473-4.1717c0.85662-0.55916 9.555 0.90258 13.658-0.044029 4.1003-0.94441 10.451 2.4017 12.065 1.8294 1.2112-0.42928 1.4336-0.14309 2.1206-0.65382" fill="#EFB888"/>
<path d="m263.2 119.1c1.7331-1.4287 2.4091-2.2322 2.4091-2.2322s-4.62 2.0825-4.8072 3.7094c-0.17397 1.5278-0.60558 4.3874-1.2838 4.7573 0.096894 0.69785 0.24664 1.1844 0.48226 1.18 0.75973-0.013208 1.2398-3.1656 1.4248-4.7947 0.083681-0.73968 0.90507-1.7457 1.7749-2.6197" fill="#EFB888"/>
<path d="m334.86 64.628s-2.658 7.9185-1.645 9.3604c1.0152 1.4419 11.867-9.629 12.959-12.914 1.0945-3.2867-11.314 3.5531-11.314 3.5531" fill="#F6C7A1"/>
<path d="m333.47 77.214s0.59677-9.4661 2.7681-9.9746c2.1713-0.51073 4.0761 1.3208 4.0761 1.3208s-5.3776 8.8255-5.1904 12.092c0.18718 3.2647-2.1405 0.82553-1.6538-3.4386" fill="#F7837F"/>
<path d="m337.24 65.037s14.587-8.1629 15.697-10.054c1.1077-1.8954 3.0367 2.3555 3.7282 4.8057s-13.301 10.529-14.116 11.377c-0.81478 0.84534-4.4417-4.2729-6.3069-3.9273-1.863 0.34562 0.99756-2.2014 0.99756-2.2014" fill="url(#k)"/>
<path d="m331.4 65.325s1.7507 4.3654 2.0105 9.8029 1.7683-7.0776 0.88305-11.399c0 0-1.7793 0.3082-2.8936 1.596" fill="#F7837F"/>
<path d="m341.96 88.465s-2.1669 2.6879-2.3386 3.9361c-0.17397 1.2482 14.063 12.502 18.918 11.163l2.8297-4.11s-19.238-10.558-19.409-10.989" fill="#F7837F"/>
<path d="m341.81 86.753s9.7466-24.896 23.437-19.344c13.688 5.5542-1.3433 29.083-2.7901 32.024-1.4468 2.9433-22.677-8.3037-20.647-12.68" fill="url(#l)"/>
<polygon points="255.86 128.75 247.69 128.75 239.53 76.685 245.74 76.685" fill="#BFC7D5"/>
<polygon points="253.51 128.75 221.65 128.75 213.49 76.685 245.35 76.685" fill="#D2DCEB"/>
<polygon points="221.23 131.45 255.86 131.45 255.86 127.57 221.23 127.57" fill="#D2DCEB"/>
<polygon points="255.86 131.45 299.52 131.45 299.52 127.57 255.86 127.57" fill="#BFC7D5"/>
<path d="m236.02 105.25c0.92269 3.9868 0.27306 8.2905-1.449 9.6136-1.7221 1.3253-3.8669-0.83214-4.7874-4.8167-0.92269-3.9868-0.27306-8.2905 1.449-9.6136 1.7221-1.3253 3.8647 0.83214 4.7874 4.8167" fill="#BFC7D5"/>
<polygon points="0.17384 139.39 325.43 139.39 325.43 131.85 0.17384 131.85" fill="#C7C6F7"/>
<g transform="translate(255.38 267.97) scale(-1 1) translate(-19.261 -9.6339)">
<path transform="translate(19.261 9.6339) scale(-1 1) translate(-19.261 -9.6339)" d="m0.58879 16.788c0.33776 0.46401 0.83145 0.89119 1.4882 1.2466 1.9167 1.0409 5.5356 1.0564 7.7645 1.1748 2.73 0.14331 5.4888 0.031035 8.1784-0.40193 2.1272-0.34291 4.2179-0.85407 6.2359-1.5241 0.28353-0.096452 2.2324-0.57658 2.3161-0.87233 0 0.0030427-0.48306 1.661 3.3903 1.2463 3.8695-0.41441 7.7429 1.4556 8.4683-4.9857 0.065566-0.58023 0.094628-1.1562 0.09073-1.7237-0.029062-5.7838-3.2376-10.947-3.2376-10.947-2.6606 1.2466-11.13 0-11.13 0s-2.421 2.4932-5.1868 6.2326c-2.7623 3.7397-11.057 2.6301-16.625 5.5376-2.225 1.1623-2.987 3.3375-1.7533 5.0173" fill="url(#f)"/>
<path transform="translate(18.191 14.986) scale(-1 1) translate(-18.191 -14.986)" d="m0 16.715c0.32394 0.47756 0.79745 0.91724 1.4273 1.283 1.8383 1.0713 5.3092 1.0873 7.4469 1.2091 2.6184 0.1475 5.2643 0.031942 7.844-0.41368 2.0402-0.35293 4.0454-0.87903 5.9809-1.5686 0.27193-0.099271 2.1411-0.59343 2.2214-0.89782 0 0.0031315-0.46331 1.7095 3.2517 1.2827 3.7112-0.42652 7.4262 1.4981 8.122-5.1314 0.062885-0.59719 0.090758-1.19 0.08735-1.774-3.2618 1.1515-18.428 6.4276-23.284 6.6198-4.648 0.18288-10.305 0.4428-13.097-0.60909" fill="#4E4C4C"/>
</g>
<polygon points="34.884 289.65 38.022 289.65 63.597 139.39 57.119 139.39" fill="#8585E0"/>
<polygon points="276.23 289.65 273.09 289.65 247.51 139.39 253.99 139.39" fill="#8585E0"/>
<path d="m48.703 30.783c0.29729 2.3247 0.30389 6.3577 0.30389 6.3577-0.085883-3.7644 4.4285-8.0352 4.4285-8.0352-3.6687 5.2019-3.5983 16.002 4.0629 16.605 7.6634 0.60319 5.7167-5.6598 5.7167-5.6598 0.68045 2.3951-3.0037 4.896-5.1596 0.98623-2.1515-3.9097 4.5562-10.703 12.479-14.089 7.9232-3.3858 6.2056-14.6 6.2056-14.6s1.6208-3.8613-6.8508-7.1964c-8.4715-3.3373-22.99 11.412-21.187 25.631" fill="url(#c)"/>
<path d="m68.393 4.9313s-12.717-3.749-21.09 7.071c-8.3725 10.818-2.8804 24.876 5.7673 33.759l0.12332-4.2729 1.7793 1.1293-0.59017-5.0214 1.3081 2.2807s0.50208-5.7435 0.65183-7.0621c0.14974-1.3186 6.7319-28.645 12.05-27.883" fill="url(#c)"/>
<path d="m76.41 9.4449s9.2665-1.2306 8.0421 18.437c-0.08368 4.9598 0.024223 6.9323 0.85883 7.7732 0.8368 0.84094-13.351-15.278-8.901-26.21" fill="url(#c)"/>
<g transform="translate(212.44 265.47) scale(-1 1) rotate(-25) translate(-21.118 -11.479)">
<path transform="translate(21.136 11.092) scale(-1 1) translate(-21.136 -11.092)" d="m38.347 0.03114s4.1584 7.1552 3.3791 14.549c-0.77976 7.3942-4.9382 5.2475-9.097 5.7244-4.1569 0.47692-3.6391-1.4297-3.6391-1.4297-0.092085 0.33837-2.1828 0.88964-2.4898 0.9988-2.1662 0.76923-4.4134 1.3564-6.6957 1.7503-2.891 0.49868-5.8519 0.6267-8.7852 0.46096-2.3918-0.13491-6.2811-0.1516-8.3406-1.3473-3.257-1.8917-2.7621-5.488 0.28851-7.1918 5.9776-3.3391 14.887-2.0661 17.856-6.3595 2.9692-4.293 5.5682-7.1552 5.5682-7.1552s9.0974 1.4307 11.956 0" fill="url(#f)"/>
<path transform="translate(21.138 16.999) scale(-1 1) translate(-21.138 -16.999)" d="m0.80719 19.016c0.36188 0.5575 0.89108 1.0698 1.5955 1.4964 2.0545 1.2497 5.9337 1.2687 8.3228 1.411 2.9262 0.17192 5.8832 0.037192 8.7668-0.48274 2.2802-0.41177 4.5213-1.0254 6.6847-1.83 0.30347-0.11575 2.393-0.69223 2.4822-1.0475 0 0.0034156-0.51736 1.9943 3.6342 1.4968 4.148-0.49792 8.2995 1.7473 9.0777-5.9872 0.070244-0.69603 0.10142-1.3886 0.097806-2.0695-3.6459 1.3435-20.595 7.4988-26.024 7.7235-5.1945 0.21329-11.517 0.51614-14.638-0.71083" fill="#4E4C4C"/>
</g>
</g>
<path transform="translate(92.484 98.777) rotate(33) translate(-92.484 -98.777)" d="m68.986 94.479s10.165 27.9 13.863 27.766c2.7773-0.099929 21.352-25.478 24.342-29.872 2.9881-4.3922 8.7914-14.715 8.7914-14.715l-7.5606-2.3501s-13.012 15.66-16.352 18.47c-3.3399 2.8116-6.9888 5.6201-6.9888 5.6201l-7.3481-10.677-8.7472 5.7581z" fill="#F0B9A3"/>
<path d="m81.867 66.246c1.7584 7.5113 3.9997 16.794 3.9997 16.794l-13.141 4.0723s-2.4277-13.355-3.3229-21.791c-0.89519-8.4337 1.6305-12.266 5.2028-11.316 4.0923 1.0886 5.5054 4.7271 7.2617 12.241z" fill="url(#j)"/>
<path d="m44.531 28.313s-0.88453 6.8701-1.6071 10.366c-0.72468 3.4936-1.3279 5.3363-1.8607 6.4057-1.1829 2.3646-8.4361 9.5734-8.4361 9.5734s22.608 11.927 29.256 11.927c6.6436 0 4.314-13.325 4.314-13.325s-7.2447-5.724-8.3253-8.6148c-1.0806-2.8929-1.6817-11.271-1.6817-11.271l-11.659-5.0615z" fill="#FEC4AD"/>
<path d="m53.34 176.56s2.5556 51.42 3.065 61.543c0.51367 10.125 0 103.12 0 103.12s12.78 0.3451 12.78 0c0-0.3451 12.047-98.056 13.607-123 1.5623-24.948 0.64582-54.522 2.7197-57.971 2.0696-3.451-5.5949-17.99-5.5949-17.99l-18.085 4.8208-8.4915 29.485z" fill="url(#t)"/>
<path d="m23.147 142.26s-3.4571 31.413-3.5786 65.159c-0.11936 33.748-2.1314 134.02-2.1314 134.02h13.637s14.057-96.9 19.17-118.59c5.109-21.695 18.398-80.181 18.398-80.181l-45.495-0.40475z" fill="url(#s)"/>
<path d="m37.225 47.649-23.241 10.021s4.5953 18.802 4.8511 26.275c0.25364 7.473 2.9371 66.503 2.9371 66.503s7.136 11.048 41.467 6.6486c13.24-1.6957 19.75-8.144 19.75-8.144s-3.7129-65.007-4.7339-72.48c-1.0209-7.473-3.5786-22.417-3.5786-22.417l-11.198-3.4446-4.5697 6.8126-21.683-9.7737z" fill="url(#r)"/>
<polygon points="37.805 44.196 58.452 58.019 52.774 64.542 36.769 48.245" fill="url(#i)"/>
<path d="m83.011 17.603c-1.0785 3.6002-4.996 5.8625-8.6301 5.7624-2.2614-0.063908-3.6618-1.1802-5.6525-1.9087-1.4174-0.52192-1.1915-0.44736-2.6472 0.34723-0.8888 0.4857-1.7819 0.93306-2.7751 1.1674-2.174 0.51126-4.1669-0.75838-6.1406-0.49422-1.9588 0.26415-0.84191 1.6616-1.9886 3.1187-0.86748 1.1035-2.319 1.6552-3.1033 2.8226-0.93356 1.3975-0.65647 3.2337-0.63516 4.9145 0.010657 0.80311-0.17478 1.7852-0.93569 2.0365-0.33037 0.11077-0.69484 0.042605-1.0316-0.048996-4.2863-1.1759-6.2131-5.9008-3.7193-9.6459-3.9921-2.2815-5.8976-7.6413-4.2436-11.932 1.6561-4.2882 6.6692-6.9788 11.162-5.9924 0.97405-3.7301 4.444-6.672 8.2848-7.0235 3.8429-0.35362 7.7903 1.9087 9.4272 5.4002-0.13854-0.30037 2.6984-0.38132 2.9158-0.38132 1.1574-0.0063908 2.3296 0.14486 3.4017 0.60074 2.0206 0.86063 3.7193 2.3966 4.9193 4.2222 1.0806 1.651 1.7861 3.63 1.6476 5.6218-0.034103 0.48783-0.12149 0.96075-0.25577 1.4124" fill="url(#d)"/>
<polygon points="58.864 57.422 64.497 61.943 63.436 50.61 61.326 47.649" fill="url(#i)"/>
<path transform="translate(123.38 87.14) rotate(17) translate(-123.38 -87.14)" d="m118.95 98.747c5.9991-3.8717 11.019-7.6773 11.769-8.2938 0.74854-0.61436 2.5341-6.8627 2.47-6.8393-0.0663 0.02133-0.83844-1.1008-0.83844-1.1008l-0.7956 0.41809 0.42123-2.4853-0.75076-1.408-0.72931 0.24103-0.24178-2.5066c-0.050591-1.471-0.41848-2.1018-1.1037-1.8923-1.0278 0.31423-3.1438 3.5476-5.0836 5.6594-1.9419 2.1119-4.2367 3.6968-4.2367 3.6968s0.46744-2.5196-1.68e-4 -4.049c-0.4676-1.5295 0.35277-2.9909 0.35277-2.9909s-0.4427-0.60289-0.81609-0.37907c-0.336 0.2014-1.0948 0.94567-2.2765 2.2328 0 0-2.7287 8.58-3.2591 9.2584-0.52824 0.67837-0.88057 14.31 5.1185 10.438z" fill="#F0B9A3"/>
<g transform="translate(90.521 78.856) rotate(-9) translate(-55.927 -26.932)">
<polygon points="36.813 50.695 51.221 50.695 65.625 0.31636 54.672 0.31636" fill="#BFC7D5"/>
<polygon points="40.949 50.695 97.173 50.695 111.58 0.31636 55.355 0.31636" fill="#D2DCEB"/>
<polygon points="32.677 53.311 97.173 53.311 97.173 49.553 32.677 49.553" fill="#D2DCEB"/>
<polygon points="0.42868 53.311 32.677 53.311 32.677 49.553 0.42868 49.553" fill="#A6AEBA"/>
<path d="m71.829 27.956c-1.6284 3.8579-0.48383 8.0226 2.5556 9.3029 3.0415 1.2824 6.8248-0.80524 8.4532-4.661 1.6263-3.8579 0.4817-8.0226-2.5577-9.3029-3.0415-1.2824-6.8248 0.80524-8.451 4.661" fill="#A6AEBA" opacity=".42218"/>
</g>
<path transform="translate(47.487 108.22) rotate(17) translate(-47.487 -108.22)" d="m9.6387 100.33s18.519 30.656 20.989 31.712c2.4703 1.0561 34.416-19.691 40.415-23.561 5.9991-3.8717 10.859-5.3577 11.769-8.2938 0.90978-2.9361 2.5341-6.8627 2.47-6.8393-0.04425 0.014236 0.17855-0.87587-0.055123-1.2068-0.11644-0.1649-0.19941-0.65223-1.1449 0.038798l-0.43399 0.48526 0.42123-2.4853c0.035054-0.58459-0.0071318-0.98888-0.12656-1.2129-0.11942-0.22397-0.32749-0.28903-0.62421-0.19516l-0.72931 0.24103-0.24178-2.5066-1.1037-1.8923s-0.6092-0.81574-1.5473 0.47836c-1.6861 2.326-1.2335 3.289-3.5363 5.1811-2.3583 1.9377-4.2367 3.6968-4.2367 3.6968s-0.6053-1.1077-1.68e-4 -4.049c0.60513-2.9413 0.092995-2.7847-0.017389-2.8668-0.48172-0.24443-0.99685-0.1395-1.5454 0.3148-0.50609 0.41915-0.89843 0.89077-1.177 1.4149 0 0-2.7287 8.58-3.2591 9.2584-0.52824 0.67837-1.9396 5.9582-9.3503 8.7739-13.264 5.0383-20.632 6.9345-20.632 6.9345 0.52399-0.074644-12.081-22.91-12.081-22.91-9.4816 6.3256-14.222 9.4884-14.222 9.4884z" fill="#FEC4AD"/>
<path transform="translate(20.391 78.364) rotate(17) translate(-20.391 -78.364)" d="m6.1027 72.898c1.7605 8.3498 14.019 26.573 14.019 26.573l15.033-11.235s-5.8863-11.738-9.1717-17.888c-3.6362-6.8075-7.0264-15.076-13.458-12.664-6.2109 2.3293-7.8339 8.5265-6.4221 15.214" fill="url(#j)"/>
<path d="m70.952 10.746c1.604 1.4485 4.2625 4.3605 4.0508 6.0629-0.21387 1.7024-0.5689 6.7413-1.4201 9.5595-0.85121 2.8181-2.5023 10.21-3.7128 13.455-1.2084 3.2427-2.6028 7.6971-3.6016 8.1152-1.0009 0.41813-9.7825-1.1243-11.434-2.336-1.6532-1.2096-10.411-10.812-8.5464-17.909 0 0-2.297 0.29653-3.7086-6.7221-0.36786-1.8304 7.0942-7.0336 8.2555-8.8491 2.8188-4.4117 13.104-0.93867 16.045-0.71253 2.9386 0.22613 4.0721-0.66347 4.0721-0.66347" fill="#FEC4AD"/>
<path d="m78.149 13.121c-0.35931 3.7461-3.777 6.7285-7.3743 7.3323-2.2414 0.37547-3.8326-0.448-5.9371-0.7808-1.4971-0.2368-1.2576-0.20693-2.5387 0.8576-0.7785 0.64853-1.572 1.2608-2.5045 1.6832-2.0382 0.9216-4.2497 0.061867-6.1403 0.704-1.8778 0.64-0.50688 1.7963-1.3517 3.4475-0.64162 1.2523-1.9634 2.0779-2.5045 3.3771-0.65231 1.5531-0.021387 3.3024 0.32723 4.9515 0.16896 0.78507 0.17538 1.7856-0.52613 2.1824-0.3037 0.17067-0.6737 0.17493-1.0245 0.15147-4.4486-0.3264-7.2631-4.5931-5.535-8.7552-4.3737-1.4699-7.2909-6.3659-6.4953-10.901 0.79561-4.5333 5.2057-8.1515 9.821-8.0512 0.23526-3.8528 3.0776-7.4155 6.7926-8.5077 3.715-1.0901 8.0395 0.36693 10.332 3.4795-0.19676-0.26667 2.5814-0.896 2.7932-0.93867 1.1399-0.2304 2.3227-0.30933 3.4669-0.068267 2.158 0.45227 4.1277 1.6341 5.6612 3.1957 1.3859 1.4101 2.4638 3.2192 2.7162 5.2032 0.064162 0.4864 0.066301 0.9664 0.021387 1.4379" fill="url(#d)"/>
<g transform="translate(52.65 339.75)">
<path transform="translate(22.095 11.049) scale(-1 1) translate(-22.095 -11.049)" d="m0.67542 19.253c0.38745 0.53216 0.95378 1.0221 1.7071 1.4297 2.1987 1.1938 6.35 1.2116 8.9068 1.3473 3.1317 0.16436 6.2963 0.035594 9.3817-0.46097 2.4402-0.39327 4.8384-0.97952 7.1534-1.7479 0.32525-0.11062 2.5609-0.66127 2.6568-1.0005 0 0.0034895-0.55414 1.905 3.8891 1.4293 4.4388-0.47528 8.882 1.6694 9.7143-5.718 0.075213-0.66546 0.10855-1.326 0.10408-1.9768-0.033338-6.6333-3.7139-12.555-3.7139-12.555-3.052 1.4297-12.767 0-12.767 0s-2.7772 2.8593-5.95 7.148c-3.1687 4.289-12.684 3.0164-19.071 6.351-2.5524 1.333-3.4265 3.8277-2.0112 5.7543" fill="url(#d)"/>
<path transform="translate(21.059 17.264) scale(-1 1) translate(-21.059 -17.264)" d="m0 19.216c0.37502 0.53915 0.92318 1.0355 1.6524 1.4485 2.1281 1.2095 6.1463 1.2275 8.6211 1.365 3.0312 0.16652 6.0944 0.036061 9.0807-0.46703 2.3619-0.39844 4.6832-0.99239 6.9239-1.7709 0.31481-0.11207 2.4787-0.66996 2.5716-1.0136 0 0.0035355-0.53636 1.93 3.7644 1.4481 4.2964-0.48152 8.5971 1.6913 9.4026-5.7931 0.0728-0.6742 0.10507-1.3435 0.10112-2.0028-3.7762 1.3-21.333 7.2565-26.955 7.4735-5.3809 0.20647-11.93 0.49991-15.162-0.68764" fill="#731100"/>
</g>
<g transform="translate(14.675 339.75)">
<path transform="translate(21.749 11.739) scale(-1 1) translate(-21.749 -11.739)" d="m39.844 0s4.3719 7.594 3.5525 15.441c-0.81978 7.8476-5.1917 5.5693-9.564 6.0755-4.3702 0.50616-3.8259-1.5173-3.8259-1.5173-0.096811 0.35913-2.2948 0.9442-2.6176 1.0601-2.2774 0.8164-4.6399 1.4396-7.0394 1.8576-3.0394 0.52926-6.1523 0.66513-9.2361 0.48923-2.5146-0.14319-6.6035-0.16089-8.7687-1.43-3.4241-2.0077-2.9039-5.8245 0.30331-7.6329 6.2844-3.5439 15.651-2.1929 18.772-6.7495 3.1216-4.5562 5.854-7.594 5.854-7.594s9.5644 1.5185 12.57 0" fill="url(#d)"/>
<path transform="translate(21.404 18.3) scale(-1 1) translate(-21.404 -18.3)" d="m0 20.391c0.38098 0.57802 0.93812 1.1092 1.6797 1.5515 2.1629 1.2957 6.2469 1.3154 8.7622 1.463 3.0807 0.17825 6.1938 0.038561 9.2296-0.5005 2.4006-0.42692 4.76-1.0632 7.0376-1.8974 0.31949-0.12001 2.5194-0.7177 2.6133-1.086 0 0.0035413-0.54468 2.0677 3.826 1.5519 4.367-0.51624 8.7377 1.8116 9.557-6.2075 0.073953-0.72164 0.10677-1.4397 0.10297-2.1456-3.8384 1.3929-21.683 7.7747-27.397 8.0077-5.4688 0.22113-12.125 0.53513-15.411-0.73698" fill="#731100"/>
</g>
</g>
<g transform="translate(567.84 184.11)">
<path d="m15.732 38.816-0.67494-32.586-0.070217-3.3951c-0.040087-0.0050023-0.08036-0.010214-0.12082-0.015637l0.08151 3.5579 0.74669 32.591c-1.4309 0.072314-2.665 0.19506-3.4283 0.28164l-0.85187-37.108c0.75485 0.19057 1.4671 0.33448 2.1391 0.439-0.45488-0.10392-0.92994-0.23353-1.4257-0.39223 0 0 0.096857-1.6523 4.5788-2.0916 0.96826-0.094214 1.7657-0.11224 2.4238-0.083665 0.033788-0.0041988 0.067851-0.0083297 0.10219-0.012391 2.1158 0.10925 2.7576 0.67639 2.865 0.78899 0.05113-0.048061 0.076196-0.075364 0.076196-0.075364l1.3678 37.441c-0.0096241 0.0028196-0.019383 0.0056724-0.029276 0.0085577l0.029276 0.73494c-1.3456 0.28802-4.521 0.9352-6.1926 0.98438-0.50414 0.015806-1.0655 0.044784-1.6287 0.079909l-0.025731-1.1451c0.012576-6.295e-4 0.025168-0.0012551 0.037778-0.0018766zm9.2146 49.864c0.12359 0.0024636 0.23923 0.0049414 0.34554 0.0073393 9.864e-4 0.015306 9.864e-4 0.023915 9.864e-4 0.023915l1.8149 47.591c-1.374-0.32334-4.6823-1.0666-6.4223-1.1374-0.49498-0.019796-1.0413-0.053815-1.5928-0.0947-0.0014086 0.030623-0.0028269 0.061215-0.0042547 0.091776 0.035031 0.002726 0.070093 0.005428 0.10517 0.008104l0.067178 1.1322c-1.2629-0.079395-2.3387-0.20539-2.9755-0.2891-0.16929-0.022437-0.31081-0.042286-0.41382-0.056957-0.11286-0.016396-0.19079-0.099243-0.17556-0.18209l0.15406-0.78532c0.010374-0.050565 0.054011-0.089513 0.11335-0.10565 0.35148-8.0426 0.054125-18.121-0.39106-26.909-1.2155 0.79526-3.8437 1.8484-8.4386 0.7108 0 0 4.1185-2.0695 8.349-1.5611l-2.1471-2.4997v1.1414h-4.8467-7.7755v-2.0084l5.4415-0.58702h5.5942c-0.11637-0.19922-0.27056-0.4955-0.4248-0.88751l-6.3308-7.3706 6.0687 6.5887c-0.57952-2.0605-0.79073-5.7142 1.9627-10.87 0 0 1.6008 6.6008-0.76731 12.168l0.34228 0.37161h0.73558v0.79861l2.1495 2.3337c-0.0013466-0.025087-0.0026941-0.050162-0.0040426-0.075223-0.394-1.1526-0.71966-2.9496-0.31335-5.368-0.36905-5.8768-0.74107-10.478-0.90035-12.37 0.58575 0.093738 1.6956 0.26335 2.8881 0.40647-0.012107-0.14298-0.023655-0.27855-0.034608-0.40647 0.018706 0.0020704 0.037421 0.0041327 0.056145 0.0061865-0.022758-0.29632-0.041752-0.5376-0.056145-0.71981 0.99409 0.11873 2.0883 0.1879 3.1105 0.1146 1.8918-0.13421 3.6637-0.082594 4.6812-0.030973 0.013551 0.33063 0.024941 0.60622 0.033852 0.82068zm-7.8942-0.91158c0.018675 0.19478 0.041925 0.43644 0.068598 0.7209-1.2896-0.13018-2.5254-0.29623-3.1533-0.38385-0.09144-0.013351-0.1744-0.025034-0.23756-0.034213-0.10935-0.01502-0.18382-0.084281-0.17534-0.15855l0.084841-0.72765c0.0079513-0.063986 0.074656-0.10982 0.15889-0.12057l-1.5421-40.216-0.12903-5.9049c0.71861-0.06894 1.998-0.18384 3.2685-0.26714l0.13201 6.0552 1.5583 40.661s0.012903 0.13309 0.034739 0.383c-0.022917-0.0024027-0.045784-0.0048278-0.068598-0.0072745zm2.254 48.537-0.045296-0.71679c0.60469 0.043795 1.2122 0.080851 1.7544 0.10191 1.6436 0.062323 4.7686 0.71587 6.0665 1.0014l0.026088 0.64344c-0.023293 0.11117-0.044723 0.2434-0.063357 0.39415-0.053562-0.014556-0.11182-0.030211-0.17448-0.046812-0.24211 2.6302-0.087242 9.4441 0.16224 16.253l0.39392-13.351c0.15135 0.032728 0.32544 0.069548 0.51949 0.10923-0.094921-0.024984-0.18318-0.048634-0.26427-0.070665-0.16865-0.045952-0.30844-0.085339-0.40944-0.11597-0.11183-0.031729-0.18308-0.14442-0.15963-0.24727l0.22366-0.97594c0.020743-0.092998 0.11363-0.14552 0.21464-0.12035 0.046897 0.010941 0.10462 0.025164 0.16775 0.040481 0.035136 0.00843 0.07266 0.017405 0.11243 0.026883 2.2427-16.117 2.389-41.084 2.3923-46.385-0.22318-0.059603-0.4171-0.11249-0.57326-0.15559-0.092209-0.025684-0.17385-0.048158-0.23821-0.066351-0.10758-0.029965-0.17769-0.12628-0.16137-0.22046l0.15752-0.92143c0.01825-0.10488 0.13543-0.16053 0.25454-0.12842 0.0057631 0.0010702 0.010566 0 0.016329 0.0021403 0.49178 0.17016 1.7049 0.56827 3.1361 0.88076 0 0.25769 0 0.62935-7.206e-4 1.1029 0.23398 0.047435 0.47309 0.094741 0.71408 0.14093-8.47e-5 0.040292-1.773e-4 0.08134-2.782e-4 0.12314 0.9651 0.18578 1.9119 0.33364 2.5995 0.36465 1.499 0.066092 3.4913 0.27395 4.5344 0.38985-9.38e-4 0.015326-9.38e-4 0.024904-9.38e-4 0.024904l-1.2315 26.119c0.28877-0.83122 0.66022-1.7469 1.1329-2.7535 0 0 0.45798 5.7827-0.59145 8.6852 0.07829-0.014807 0.35686-0.063862 0.76299-0.094998 0.93793-0.71938 1.822-1.4152 2.3293-1.8168-0.067046-0.041674-0.13159-0.084925-0.1934-0.12981-0.50138 0.62484-1.0081 1.0759-1.4837 1.2062 0 0-0.48361-3.4221 4.9826-7.8498 0 0-1.6771 4.3221-3.4388 6.5678 0.10368-0.018699 0.26754-0.045301 0.48133-0.070637 0.060793-0.048396 0.093513-0.074541 0.093513-0.074541l0.010486 0.012884s-0.023803 0.020026-0.068501 0.057516c1.2217-0.14027 3.9765-0.22561 6.4888 1.3314 0 0-4.6829 0.28241-6.8446-1.0339-0.47434 0.39556-1.2923 1.0739-2.1727 1.7875 1.2011-0.067585 3.268 0.053355 4.7371 1.4127 0 0-3.2836 0.013536-5.2342-1.0116-0.003544 0.002847-0.0070881 0.005693-0.010632 0.008539-0.37662 0.30287-0.755 0.60344-1.1136 0.88393-0.041078 0.042553-0.083343 0.082301-0.12683 0.1191 0 0-0.0035456-0.004011-0.010112-0.012213-0.024744 0.019272-0.049378 0.038435-0.073894 0.057482l-0.65231 13.835c0.030193 0.009365 0.059533 0.018483 0.087984 0.027341l-0.035023 0.67247c-0.034076 0.11355-0.068152 0.24998-0.10223 0.40577-0.98537-0.36352-3.5827-1.2534-5.9132-1.4805-0.62189-0.060734-1.2267-0.13555-1.7966-0.21653l0.029325-0.94366c-0.0097761-0.001647-0.019551-0.003296-0.029325-0.004946l0.0080276-0.27735c-0.48521-0.078931-0.95767-0.15964-1.3851-0.23469 0.43137 0.095376 0.9025 0.19616 1.3771 0.29169l-0.031212 1.3103c0.010392 0.001537 0.020796 0.003074 0.031212 0.004608l-0.95445 32.334-0.033663 1.1796c-1.8891 0.26766-3.2921 0.86417-3.2921 0.86417l0.15189-5.148c-1.8184-0.91954-3.8452-0.77412-5.4573-0.3771l-0.063581-1.1865-1.7646-32.538c0.015073 0.001064 0.030172 0.00212 0.045296 0.003169zm4.3713-81.38c0.32737 10.936 1.0782 28.047 1.2903 32.794-1.0018-0.048005-2.7465-0.09601-4.6092 0.028803-1.0064 0.067207-2.0839 0.0038405-3.0617-0.10657-0.021198-0.25059-0.032258-0.385-0.032258-0.385l-1.4479-40.772-0.12258-6.0717c0.5447-0.038404 1.0876-0.070088 1.5751-0.08737 1.6166-0.053766 4.6875-0.76136 5.9889-1.0763l0.061459 1.7264c0.2137-0.55948 0.46132-1.1353 0.74703-1.7264 0 0 0.66425 6.0513-0.5056 11.185 0.0079422 0.38837 0.017038 0.79494 0.027198 1.218 0.1503-0.21748 0.29839-0.4289 0.43998-0.63532 0.26814-0.37599 0.52-0.7313 0.75366-1.0594 0.066916-0.092207 0.13243-0.1821 0.19641-0.26955 0.081688-1.364 0.80043-7.6833 7.1231-11.866 0 0-2.321 10.081-7.1336 12.132 0 0 5.74e-5 -0.033242 0.0022996-0.09669-0.034554 0.05135-0.069537 0.10346-0.10493 0.15631-0.22026 0.33557-0.45871 0.70028-0.71248 1.0847-0.152 0.23975-0.31166 0.48632-0.47291 0.74081 2.4158-2.1871 5.9379-3.6455 8.5398-4.4994l0.15851-2.3701c0.72295-0.0095781 2.0115-0.020114 3.2901 0.0019157l-0.09595 1.4348c0.062924-0.01379 0.09595-0.020589 0.09595-0.020589-0.034477 0.045368-0.069013 0.090384-0.1036 0.13505l-0.30069 4.4964-2.0354 40.654s9.958e-4 0.13505 9.958e-4 0.386c-1.4837-0.27968-2.7414-0.63599-3.2513-0.78924-0.004979-0.0019157-0.010954-9.579e-4 -0.016928-0.0019157l1.8683-37.32c-2.0749 0.52662-5.1929 1.131-8.1521 0.97904zm-0.049235-1.7167c1.797-0.84645 4.6246-1.5991 8.2744-0.72253l0.081108-1.6202 0.065577-0.98054c-4.075 2.7827-7.9501 2.185-8.4532 2.092 0.0098491 0.39723 0.020583 0.8081 0.032133 1.2313zm12.169-8.3018c-0.043078-7.243e-4 -0.086198-0.0014219-0.12934-0.0020958l0.078103-1.0293c0.55613 0.014241 1.1433 0.037184 1.7427 0.07516 2.2942 0.14636 4.9666-0.24289 6.0262-0.41931l-0.041197 0.71975c0.013917-0.0020667 0.02765-0.00411 0.041197-0.0061294l-0.3518 7.5416c-0.6068 6.4213-1.6855 34.658-1.9228 40.985-1.0033-0.13848-2.7548-0.33948-4.6394-0.38083-1.0182-0.021157-2.0968-0.1808-3.0722-0.37891 0-0.251-9.307e-4 -0.3866-9.307e-4 -0.3866l1.9023-40.819 0.36712-5.8988zm7.878-1.8985c-1.1893 0.22442-3.868 0.65407-6.1817 0.48415-0.62826-0.046088-1.2437-0.074892-1.8256-0.091215l2.1649-32.829 0.2375-3.5994c-0.086579-0.013023-0.17401-0.026902-0.2623-0.041664l0.04455-0.63566s0.046214-0.27177 0.52937-0.56723c-0.82167 0.36069-0.89023 0.75202-0.89023 0.75202l-0.047366 0.65597c-0.67777-0.10997-1.4033-0.26736-2.1777-0.48295 0.91155 0.29201 1.7582 0.49803 2.5414 0.63581l-0.24333 3.6366-2.1801 32.591c-1.3666-0.039082-2.5505-0.013345-3.2835 0.014298l2.4811-37.08c-0.11269-0.035121-0.22635-0.07145-0.34098-0.10902 0 0 0.23387-1.3512 5.0909-1.3469 0.65832 5.1295e-4 1.2418 0.020004 1.7593 0.053519 0.32763-0.026985 0.68829-0.045531 1.0853-0.05353 2.2953 0.27763 2.7649 0.8769 2.7649 0.8769s-1.5254 1.2622-4.7656 1.264c3.7274 0.11934 5.479-1.4272 5.479-1.4272l-1.8381 37.128c0.013749-0.0044658 0.026856-0.0088084 0.039239-0.01301 0.094164-0.03006 0.18547 0.045648 0.19261 0.16255l0.057069 0.97196c0.0049935 0.097975-0.052075 0.18927-0.13411 0.20931-0.081323 0.018927-0.19546 0.045648-0.33457 0.076821l0.03813-1.2366zm-4.0485 84.17c0.22378-0.1678 0.4518-0.34027 0.67936-0.51389-0.11991-0.067473-0.23412-0.13918-0.34147-0.2154-0.098833 0.27088-0.21093 0.51635-0.33789 0.72929zm-6.9543 14.356c2.3051 0.24905 4.8742 1.2259 5.8489 1.6236-1.0702 5.4829-1.8491 33.82-1.8491 33.82-1.9606-2.0242-4.6439-2.1545-6.7112-1.8398l0.031833-1.1912 0.90257-32.65c0.5627 0.088807 1.1619 0.17086 1.777 0.23746zm9.2597-48.658c0.08917 0.021111 0.15195 0.12139 0.13911 0.22272l-0.12341 0.95951c-0.011414 0.091834-0.082037 0.152-0.16265 0.13722-0.092737-0.015834-0.22899-0.038-0.3952-0.06439 0.0028535-0.11189 0.015694-0.59006 0.035668-1.3606 0.21758 0.042223 0.39164 0.080223 0.50649 0.10556zm-9.1177 0.38313c9.469e-4 -0.52337 9.469e-4 -0.92929 9.469e-4 -1.2023 0.99235 0.2112 2.0898 0.38222 3.1257 0.40592 1.9175 0.044301 3.6995 0.25962 4.7203 0.40695-0.026513 0.75209-0.043558 1.2188-0.047345 1.328-1.053-0.12466-3.0642-0.34823-4.5773-0.41931-0.83612-0.04018-2.0519-0.26271-3.2223-0.51925zm-0.52565-49.662c0.11803-0.008611 0.28327-0.018298 0.4896-0.027986 0.64522-0.031215 1.6865-0.060277 2.8895-0.016146l-0.072565 1.4004c-1.1226-0.024757-2.2539-0.012916-2.8886-0.0021528-0.14076 0.0021528-0.25704 0.0053819-0.34359 0.0064583-0.099668 0.0021527-0.1801-0.068888-0.18797-0.16361l-0.07344-0.99134c-0.0087429-0.10441 0.076937-0.19805 0.1871-0.20559zm-26.134 59.572c-3.0833 0-5.4419 0.58684-5.4419 0.58684l3.8725e-4 -0.58684h5.4415zm12.665 33.454 1.8026 32.334 0.064949 1.1791c-1.7668 0.42302-3.046 1.1332-3.046 1.1332l-1.9475-34.967c0.66926 0.093792 1.7997 0.23257 3.126 0.32158zm8.4421-0.32158c0.12769 0.048085 0.23541 0.088521 0.31174 0.11694 0.079897 0.031692 0.13197 0.12896 0.11984 0.22403l-0.11628 0.94204c-0.013554 0.11256-0.10843 0.17376-0.20045 0.13005-0.040662-0.019671-0.089884-0.041528-0.14339-0.066664 0.014267-0.19562 0.030675-0.3672 0.048509-0.51145l-0.019974-0.83494zm-1.0455-48.483c0.090597 0.0087617 0.15908 0.10624 0.15195 0.21137l-0.067769 1.0087c-0.0064203 0.096378-0.072763 0.16757-0.1548 0.16319-0.092737-0.0032857-0.23042-0.0098569-0.39663-0.015333-0.0035668-0.11609-0.019261-0.61222-0.042802-1.4117 0.219 0.016428 0.3952 0.031761 0.51005 0.043808zm-13.915-48.246c0.11643-0.016702 0.28189-0.038679 0.48675-0.064173 0.64082-0.079996 1.6791-0.1934 2.882-0.26021l0.023637 1.1463c-1.1206 0.075601-2.249 0.18197-2.8828 0.24526-0.13832 0.013186-0.25563 0.025493-0.34142 0.034284-0.0998 0.010549-0.18559-0.040438-0.19785-0.11692l-0.1427-0.80084c-0.015758-0.084392 0.063032-0.1679 0.17246-0.18373zm11.526-1.7383c0.092737-0.042483 0.18761 0.020697 0.20045 0.1329l0.11057 0.94008c0.0107 0.09586-0.041375 0.19281-0.12198 0.22113-0.08061 0.030501-0.19332 0.070806-0.32957 0.11982l-0.032101-1.3366c0.064916-0.028322 0.12484-0.054466 0.17263-0.077341z" fill="url(#q)"/>
<path d="m38.723 142.01c0.12412 0.063594 0.22899 0.11641 0.30389 0.15629 0.077756 0.039881 0.12412 0.14228 0.107 0.23498l-0.16764 0.9108c-0.020688 0.10886-0.11842 0.15737-0.20759 0.1024-0.039948-0.024791-0.086317-0.052815-0.13911-0.084073 0.025681-0.19078 0.051362-0.35785 0.077043-0.4969l0.026394-0.82349z" fill="#C8DA96"/>
<path d="m47.548 173.28-3.175 18.732c-0.27393 1.6223-1.6778 2.8088-3.3214 2.8088h-12.887-12.886c-1.6436 0-3.0475-1.1865-3.3224-2.8088l-3.2255-19.041-0.20064-0.001599-1.3475-8.3366c-0.34915-2.1261 1.2402-4.0664 3.3332-4.0664h17.663 17.665c2.0911 0 3.6804 1.9403 3.3313 4.0664l-1.5527 8.6481-0.073499-5.86e-4z" fill="url(#c)"/>
</g>
</g>
</g>
</g>
</svg>
