<?xml version="1.0" standalone="no"?>
<!DOCTYPE svg PUBLIC "-//W3C//DTD SVG 20010904//EN"
 "http://www.w3.org/TR/2001/REC-SVG-20010904/DTD/svg10.dtd">
<svg version="1.0" xmlns="http://www.w3.org/2000/svg"
 width="1280.000000pt" height="1280.000000pt" viewBox="0 0 1280.000000 1280.000000"
 preserveAspectRatio="xMidYMid meet">
<metadata>
Created by potrace 1.15, written by Peter Selinger 2001-2017
</metadata>
<g transform="translate(0.000000,1280.000000) scale(0.100000,-0.100000)"
fill="#ffeee5" stroke="none">
<path d="M6085 12794 c-963 -61 -1762 -274 -2576 -685 -609 -308 -1145 -697
-1633 -1185 -1447 -1446 -2108 -3467 -1801 -5499 180 -1191 706 -2319 1509
-3240 132 -151 433 -452 594 -593 1507 -1323 3538 -1863 5502 -1463 1240 252
2364 861 3262 1767 272 275 458 494 671 793 1581 2213 1581 5208 2 7420 -954
1336 -2376 2256 -3974 2571 -188 36 -466 76 -673 96 -154 14 -750 26 -883 18z
m770 -285 c1240 -94 2430 -563 3390 -1338 371 -299 750 -690 1041 -1071 116
-153 300 -426 375 -555 224 -390 361 -677 492 -1035 184 -499 295 -992 354
-1575 24 -240 24 -831 0 -1075 -79 -792 -275 -1490 -607 -2165 -230 -466 -487
-858 -829 -1265 -139 -166 -553 -578 -716 -714 -272 -226 -590 -452 -845 -599
-544 -315 -1046 -519 -1635 -666 -517 -128 -921 -176 -1485 -175 -370 0 -544
12 -845 55 -1154 167 -2220 643 -3095 1383 -135 115 -176 153 -343 316 -197
192 -333 345 -556 620 -74 92 -202 276 -347 500 -145 224 -383 696 -497 985
-232 588 -363 1158 -418 1810 -26 311 -14 826 27 1175 264 2232 1735 4144
3825 4974 647 256 1351 404 2054 430 135 5 512 -3 660 -15z"/>
<path d="M4140 10461 c-251 -72 -508 -237 -756 -485 -381 -383 -584 -819 -488
-1052 92 -224 435 -192 835 77 118 79 195 143 322 268 199 195 329 370 429
577 141 295 130 523 -29 605 -65 33 -216 38 -313 10z"/>
</g>
</svg>
