<?xml version="1.0" standalone="no"?>
<!DOCTYPE svg PUBLIC "-//W3C//DTD SVG 20010904//EN"
 "http://www.w3.org/TR/2001/REC-SVG-20010904/DTD/svg10.dtd">
<svg version="1.0" xmlns="http://www.w3.org/2000/svg"
 width="1264.000000pt" height="1280.000000pt" viewBox="0 0 1264.000000 1280.000000"
 preserveAspectRatio="xMidYMid meet">
<metadata>
Created by potrace 1.15, written by Peter Selinger 2001-2017
</metadata>
<g transform="translate(0.000000,1280.000000) scale(0.100000,-0.100000)"
fill="#ffeee5" stroke="none">
<path d="M6030 12794 c-501 -33 -850 -85 -1252 -188 -2397 -612 -4225 -2583
-4672 -5041 -75 -413 -100 -706 -100 -1165 0 -360 8 -506 45 -810 181 -1474
894 -2877 1974 -3883 960 -895 2128 -1459 3397 -1641 335 -49 507 -60 898 -60
391 0 563 11 898 60 2676 384 4825 2474 5316 5169 75 413 100 706 100 1165 0
203 -5 417 -12 500 -77 886 -293 1655 -677 2415 -762 1509 -2090 2655 -3680
3175 -448 146 -904 239 -1395 286 -154 14 -715 26 -840 18z"/>
</g>
</svg>
