<?xml version="1.0" standalone="no"?>
<!DOCTYPE svg PUBLIC "-//W3C//DTD SVG 20010904//EN"
 "http://www.w3.org/TR/2001/REC-SVG-20010904/DTD/svg10.dtd">
<svg version="1.0" xmlns="http://www.w3.org/2000/svg"
 width="1220.000000pt" height="1280.000000pt" viewBox="0 0 1220.000000 1280.000000"
 preserveAspectRatio="xMidYMid meet">
<metadata>
Created by potrace 1.15, written by Peter Selinger 2001-2017
</metadata>
<g transform="translate(0.000000,1280.000000) scale(0.100000,-0.100000)"
fill="#ffebcc" stroke="none">
<path d="M4450 12790 c-326 -34 -625 -119 -915 -260 -771 -376 -1292 -1093
-1430 -1967 -22 -141 -30 -433 -16 -589 7 -71 25 -195 41 -277 17 -81 30 -152
30 -157 0 -6 -10 -10 -23 -10 -12 0 -83 -15 -157 -34 -642 -162 -1177 -538
-1540 -1080 -214 -320 -350 -680 -417 -1101 -26 -169 -24 -536 5 -714 47 -287
121 -519 247 -776 234 -475 574 -839 1035 -1105 135 -79 303 -152 502 -221
l37 -13 -87 -90 c-179 -186 -328 -399 -447 -641 -136 -276 -212 -526 -257
-840 -17 -118 -17 -512 0 -630 69 -480 237 -888 526 -1275 91 -123 343 -374
470 -469 700 -525 1581 -677 2386 -411 608 200 1105 597 1430 1140 276 461
408 1028 360 1545 -58 624 -320 1186 -754 1621 -272 271 -573 463 -938 600
-64 24 -122 44 -128 44 -19 0 -11 11 66 93 345 370 569 798 668 1275 43 210
51 287 51 527 -1 244 -13 360 -59 561 l-23 102 86 17 c567 112 1127 449 1485
894 135 168 215 293 315 491 370 738 372 1559 7 2306 -382 780 -1092 1294
-1976 1429 -124 19 -459 27 -580 15z"/>
<path d="M9290 9555 c-782 -101 -1474 -537 -1884 -1190 -367 -584 -490 -1274
-345 -1943 131 -603 487 -1160 974 -1522 968 -720 2262 -696 3205 59 421 337
742 844 880 1391 58 225 74 361 74 620 0 299 -26 483 -109 755 -294 965 -1098
1661 -2105 1821 -142 22 -546 28 -690 9z"/>
</g>
</svg>
