<?xml version="1.0" standalone="no"?>
<!DOCTYPE svg PUBLIC "-//W3C//DTD SVG 20010904//EN"
 "http://www.w3.org/TR/2001/REC-SVG-20010904/DTD/svg10.dtd">
<svg version="1.0" xmlns="http://www.w3.org/2000/svg"
 width="1280.000000pt" height="1012.000000pt" viewBox="0 0 1280.000000 1012.000000"
 preserveAspectRatio="xMidYMid meet">
<metadata>
Created by potrace 1.15, written by Peter Selinger 2001-2017
</metadata>
<g transform="translate(0.000000,1012.000000) scale(0.100000,-0.100000)"
fill="#ffeee5" stroke="none">
<path d="M5030 8779 c-244 -14 -469 -56 -673 -123 -413 -136 -647 -350 -691
-632 -8 -49 -14 -83 -15 -76 -1 10 -4 10 -16 -2 -8 -8 -24 -18 -35 -21 -11 -4
-18 -10 -15 -15 3 -5 -30 7 -72 25 -192 83 -344 110 -581 102 -259 -8 -440
-55 -687 -178 -180 -89 -302 -177 -440 -314 -231 -230 -351 -481 -362 -758 -9
-209 25 -356 126 -553 l57 -111 -45 -49 c-105 -116 -178 -264 -213 -434 -26
-125 -21 -388 11 -522 49 -213 136 -413 255 -593 278 -417 660 -656 1106 -691
136 -10 390 27 545 81 14 5 16 4 6 -3 -11 -8 -11 -11 0 -18 7 -4 14 -3 17 4 2
7 30 -41 62 -106 180 -365 515 -629 1015 -802 359 -124 758 -183 1225 -183
537 0 989 82 1293 234 43 22 76 36 73 31 -3 -5 14 -15 37 -22 23 -6 48 -17 56
-24 12 -9 13 -8 7 4 -4 8 1 4 12 -10 30 -36 89 -160 103 -214 6 -26 10 -84 7
-134 -3 -74 -9 -98 -38 -157 -51 -105 -196 -245 -367 -355 -73 -47 -132 -89
-133 -94 0 -11 290 -1 391 14 493 75 840 331 1233 912 l58 86 97 7 c491 32
874 120 1189 270 438 210 670 517 672 889 1 51 5 66 26 90 21 24 36 29 102 37
462 56 767 359 884 880 20 91 23 130 23 319 0 247 -13 342 -75 530 -151 464
-465 748 -885 801 -55 7 -95 14 -88 16 9 3 6 11 -7 26 -11 11 -20 30 -20 41 0
18 -2 19 -11 6 -8 -12 -9 -11 -5 5 44 162 51 288 22 408 -102 430 -604 842
-1304 1071 -710 232 -1405 200 -1824 -84 -78 -53 -143 -112 -222 -200 -27 -30
-44 -47 -37 -37 12 15 10 17 -28 18 -22 1 -45 2 -49 3 -5 0 -37 36 -71 78
-243 302 -726 492 -1340 528 -180 11 -178 11 -361 -1z"/>
</g>
</svg>
